<?xml version="1.0" ?><svg id="Layer_1" style="enable-background:new 0 0 512 512;" version="1.1" viewBox="0 0 512 512" xml:space="preserve" xmlns="http://www.w3.org/2000/svg" xmlns:xlink="http://www.w3.org/1999/xlink"><style type="text/css">
	.st0{fill:#1B3954;}
	.st1{fill:#16ADE1;}
</style><g><g><path class="st0" d="M458.7,67.1c-14.2-14.2-32.8-21.3-51.4-21.3c-18.6,0-37.2,7.1-51.4,21.3L286,136.9    c18.6,5.3,42.6,24.3,60.6,42.3c10.2,10.2,36,37.7,42.3,60.6l69.8-69.8C487.1,141.6,487.1,95.5,458.7,67.1z M365.4,106.7    l-38.4,38.4c-1.4,1.4-3.2,2.1-4.9,2.1c-1.8,0-3.6-0.7-5-2.1c-2.7-2.7-2.7-7.2,0-9.9l38.4-38.4c2.7-2.7,7.2-2.7,9.9,0    C368.1,99.5,368.1,104,365.4,106.7z M376.8,93.6c-0.4,0.1-0.9,0.1-1.4,0.1c-1.8,0-3.6-0.8-5-2.1c-0.3-0.3-0.6-0.7-0.9-1.1    c-0.3-0.4-0.5-0.8-0.6-1.2c-0.2-0.4-0.3-0.9-0.4-1.3c-0.1-0.4-0.1-0.9-0.1-1.4c0-0.5,0-0.9,0.1-1.4c0.1-0.5,0.2-0.9,0.4-1.3    c0.2-0.4,0.4-0.8,0.6-1.2c0.3-0.4,0.5-0.7,0.9-1.1c0.3-0.3,0.7-0.6,1.1-0.9c0.4-0.3,0.8-0.5,1.2-0.6c0.4-0.2,0.9-0.3,1.3-0.4    c0.9-0.2,1.8-0.2,2.7,0c0.5,0.1,0.9,0.2,1.3,0.4c0.4,0.2,0.8,0.4,1.2,0.6c0.4,0.3,0.7,0.6,1.1,0.9c1.3,1.3,2.1,3.1,2.1,4.9    c0,0.4,0,0.9-0.1,1.4c-0.1,0.4-0.2,0.9-0.4,1.3c-0.2,0.4-0.4,0.8-0.6,1.2c-0.3,0.4-0.5,0.7-0.9,1.1c-0.3,0.3-0.7,0.6-1.1,0.9    c-0.4,0.3-0.8,0.5-1.2,0.6C377.7,93.4,377.3,93.5,376.8,93.6z M444,155.3l-53.5,53.5c-1.4,1.4-3.1,2.1-4.9,2.1    c-1.8,0-3.6-0.7-5-2.1c-2.7-2.7-2.7-7.2,0-9.9l53.5-53.5c14.8-14.8,14.8-38.9,0-53.7c-2.7-2.7-2.7-7.2,0-9.9    c2.7-2.7,7.2-2.7,9.9,0C464.2,102,464.2,135,444,155.3z"/><g><ellipse class="st1" cx="323" cy="202.7" rx="19.3" ry="72.7" transform="matrix(0.7071 -0.7071 0.7071 0.7071 -48.7182 287.7947)"/></g><path class="st0" d="M226,136.9l-69.8-69.8c-14.2-14.2-32.8-21.3-51.4-21.3c-18.6,0-37.2,7.1-51.4,21.3    c-28.4,28.4-28.4,74.5,0,102.9l69.8,69.8c6.3-22.9,32.1-50.4,42.3-60.6C183.4,161.2,207.4,142.1,226,136.9z M131.4,208.7    c-1.4,1.4-3.2,2.1-5,2.1c-1.8,0-3.6-0.7-5-2.1L68,155.3C47.8,135,47.8,102,68,81.8c2.7-2.7,7.2-2.7,9.9,0c2.7,2.7,2.7,7.2,0,9.9    c-14.8,14.8-14.8,38.9,0,53.7l53.5,53.5C134.1,201.6,134.1,206,131.4,208.7z M143.4,88.1c-0.1,0.4-0.2,0.9-0.4,1.3    c-0.2,0.4-0.4,0.8-0.6,1.2c-0.3,0.4-0.5,0.7-0.9,1.1c-1.3,1.3-3.1,2.1-5,2.1c-0.5,0-0.9-0.1-1.4-0.1c-0.5-0.1-0.9-0.2-1.3-0.4    c-0.4-0.2-0.8-0.4-1.2-0.6c-0.4-0.3-0.7-0.6-1.1-0.9c-0.3-0.3-0.6-0.7-0.9-1.1c-0.3-0.4-0.5-0.8-0.6-1.2c-0.2-0.4-0.3-0.9-0.4-1.3    c-0.1-0.5-0.1-0.9-0.1-1.4c0-1.8,0.8-3.7,2.1-4.9c0.3-0.3,0.7-0.6,1.1-0.9c0.4-0.3,0.8-0.5,1.2-0.6c0.4-0.2,0.9-0.3,1.3-0.4    c0.9-0.2,1.8-0.2,2.7,0c0.5,0.1,0.9,0.2,1.3,0.4c0.4,0.2,0.8,0.4,1.2,0.6c0.4,0.3,0.7,0.6,1.1,0.9c0.3,0.3,0.6,0.7,0.9,1.1    c0.3,0.4,0.5,0.8,0.6,1.2c0.2,0.4,0.3,0.9,0.4,1.3c0.1,0.4,0.1,0.9,0.1,1.4C143.6,87.2,143.5,87.6,143.4,88.1z M146.6,96.8    c2.7-2.7,7.2-2.7,9.9,0l38.4,38.4c2.7,2.7,2.7,7.2,0,9.9c-1.4,1.4-3.2,2.1-5,2.1c-1.8,0-3.6-0.7-4.9-2.1l-38.4-38.4    C143.9,104,143.9,99.5,146.6,96.8z"/><g><ellipse class="st1" cx="189" cy="202.7" rx="72.7" ry="19.3" transform="matrix(0.7071 -0.7071 0.7071 0.7071 -87.9891 192.9856)"/></g><g><circle class="st1" cx="195.1" cy="309.9" r="27.7"/></g><g><circle class="st1" cx="275.7" cy="256.5" r="22.3"/></g><g><circle class="st1" cx="233.9" cy="431.7" r="34.5"/></g><g><g><path class="st1" d="M307.9,305.7c-18.5,0-33.5,15-33.5,33.5c0,16.1,11.4,29.5,26.5,32.8v-21.1c0-3.9,3.1-7,7-7s7,3.1,7,7V372      c15.1-3.2,26.5-16.7,26.5-32.8C341.4,320.7,326.4,305.7,307.9,305.7z M314.8,332.9c-0.1,0.4-0.2,0.9-0.4,1.3      c-0.2,0.4-0.4,0.8-0.6,1.2c-0.3,0.4-0.5,0.7-0.9,1.1c-1.3,1.3-3.1,2-5,2s-3.7-0.7-5-2c-0.3-0.3-0.6-0.7-0.9-1.1      s-0.5-0.8-0.7-1.2c-0.2-0.4-0.3-0.9-0.4-1.3c-0.1-0.5-0.1-0.9-0.1-1.4c0-1.8,0.8-3.7,2-5c1.6-1.6,4-2.4,6.3-1.9      c0.4,0.1,0.9,0.2,1.3,0.4c0.4,0.2,0.8,0.4,1.2,0.6c0.4,0.3,0.7,0.5,1.1,0.9c1.3,1.3,2,3.1,2,5      C314.9,332,314.9,332.5,314.8,332.9z"/></g></g></g></g></svg>