<?xml version="1.0" ?><svg id="Layer_1" style="enable-background:new 0 0 512 512;" version="1.1" viewBox="0 0 512 512" xml:space="preserve" xmlns="http://www.w3.org/2000/svg" xmlns:xlink="http://www.w3.org/1999/xlink"><style type="text/css">
	.st0{fill:#1B3954;}
	.st1{fill:#16ADE1;}
</style><g><g><path class="st0" d="M126.3,432.4c0,6.4,1.3,12.6,3.7,18.3c2.4,5.8,5.9,11.1,10.4,15.6c9,9,21.2,14,33.9,14h163.6    c6.4,0,12.6-1.3,18.3-3.7c5.8-2.4,11.1-5.9,15.5-10.4c9-9,14.1-21.2,14.1-33.9v-3.6H126.3V432.4z"/><path class="st0" d="M381.8,190.9h-76c-3.9,0-7-3.1-7-7c0-3.9,3.1-7,7-7h68.7c-5.5-7.9-12.9-14.5-21.8-19.2    c-10.1-5.4-18.4-13.3-24.1-22.8c-5.7-9.5-8.9-20.5-8.9-32v-9.2H192.2v9.2c0,22.9-12.7,44-33,54.7c-18.9,10-31.2,28.9-32.8,50    h259.1C385.1,201.9,383.8,196.2,381.8,190.9z M277.6,188.8c-1.3,1.3-3.1,2.1-5,2.1c-1.8,0-3.6-0.8-4.9-2.1    c-1.3-1.3-2.1-3.1-2.1-4.9c0-1.9,0.8-3.7,2.1-5c0.3-0.3,0.7-0.6,1.1-0.9c0.4-0.3,0.8-0.5,1.2-0.6c0.4-0.2,0.9-0.3,1.3-0.4    c2.3-0.5,4.7,0.3,6.3,1.9c1.3,1.3,2,3.1,2,5C279.7,185.7,278.9,187.5,277.6,188.8z"/><rect class="st0" height="46.4" width="30.1" x="126.3" y="368.4"/><g><circle class="st1" cx="241.5" cy="305.4" r="13"/></g><rect class="st0" height="46.4" width="30.1" x="126.3" y="221.7"/><rect class="st0" height="46.4" width="30.1" x="355.7" y="221.7"/><g><circle class="st1" cx="270.5" cy="305.4" r="13"/></g><rect class="st0" height="46.4" width="30.1" x="355.7" y="368.4"/><g><g><path class="st1" d="M341.7,275.1v-53.4H170.3v53.4c0,3.9-3.1,7-7,7h-37.1v72.2h37.1c3.9,0,7,3.1,7,7v53.4h171.3v-53.4      c0-3.9,3.1-7,7-7h37.1v-72.2h-37.1C344.8,282.1,341.7,279,341.7,275.1z M185.4,247.6c2.7-2.7,7.2-2.7,9.9,0l14.4,14.4      c-2.1,2.2-4.1,4.6-6,7.2c-0.9,1.3-1.8,2.7-2.7,4l-15.7-15.7C182.7,254.8,182.7,250.4,185.4,247.6z M195.3,388.9      c-1.4,1.4-3.2,2.1-4.9,2.1c-1.8,0-3.6-0.7-4.9-2.1c-2.7-2.7-2.7-7.2,0-9.9l13.5-13.5v1c0,5.1,2.7,9.5,6.8,12L195.3,388.9z       M299.1,353.3v13.2H287v13.6h-10.4c0,0,0,0,0,0v-14.5c0-3.9-3.1-7-7-7s-7,3.1-7,7v14.5c0,0,0,0,0,0h-10.1c0,0,0,0,0,0v-14.5      c0-3.9-3.1-7-7-7s-7,3.1-7,7v14.5c0,0,0,0,0,0h-14.6v-13.6h-11v-13.2l9.5-9.5c-10.2-9.2-16.6-22.5-16.6-37.3      c0-10.9,3.5-21,9.4-29.2c9.1-12.7,24-21,40.9-21c16.8,0,31.8,8.3,40.9,21c5.9,8.2,9.4,18.3,9.4,29.2c0,14.8-6.4,28.1-16.6,37.3      L299.1,353.3z M326.6,388.9c-1.4,1.4-3.2,2.1-4.9,2.1c-1.8,0-3.6-0.7-4.9-2.1l-10.4-10.4c4.1-2.4,6.8-6.9,6.8-12v-1l13.5,13.5      C329.3,381.7,329.3,386.1,326.6,388.9z M326.6,257.5l-15.7,15.7c-0.8-1.4-1.7-2.7-2.6-4c-1.8-2.6-3.8-4.9-6-7.2l14.4-14.4      c2.7-2.7,7.2-2.7,9.9,0C329.3,250.4,329.3,254.8,326.6,257.5z"/></g></g><g><polygon class="st1" points="230.6,31.6 230.6,31.6 207.8,31.6 207.8,31.6 207.8,79.7 230.6,79.7    "/></g><g><polygon class="st1" points="304.3,31.6 304.3,31.6 281.4,31.6 281.4,31.6 281.4,79.7 304.3,79.7    "/></g><g><path class="st1" d="M174.8,79.7h18.9V31.6c0,0,0,0,0,0h-18.9c-3.1,0-5.7,3.2-5.7,7.2v33.7C169.1,76.5,171.7,79.7,174.8,79.7z"/></g><g><path class="st1" d="M342.9,72.6V38.8c0-4-2.5-7.2-5.7-7.2h-18.9c0,0,0,0,0,0v48.1h18.9C340.3,79.7,342.9,76.5,342.9,72.6z"/></g><g><polygon class="st1" points="267.4,31.6 267.4,31.6 244.6,31.6 244.6,31.6 244.6,79.7 267.4,79.7    "/></g></g></g></svg>