<?xml version="1.0" ?><svg id="Layer_1" style="enable-background:new 0 0 512 512;" version="1.1" viewBox="0 0 512 512" xml:space="preserve" xmlns="http://www.w3.org/2000/svg" xmlns:xlink="http://www.w3.org/1999/xlink"><style type="text/css">
	.st0{fill:#1B3954;}
	.st1{fill:#16ADE1;}
</style><g><g><g><path class="st1" d="M158.6,207.9h19.3c0-2.1,0.9-4.1,2.7-5.5c1-0.8,104.6-82.9,101.1-164.8c0-0.7,0-1.4,0.2-2.1     c-6.8-1.5-14-2.4-21.3-2.4h-41.4C227.1,80.1,170.1,187,158.6,207.9z"/></g><g><path class="st1" d="M223.2,217.9c0.2,0.8,0.3,1.7,0.3,2.6v17.3c0.4,0,0.9,0,1.3,0.1c0.7,0.1,68.6,12.9,114.7-14     c1.4-0.8,3-1.1,4.5-0.9l2.2-15.2l9.3-65.4c1.2-8.5,1.3-16.9,0.3-25.1C292.7,195.1,240.7,213.7,223.2,217.9z"/></g><g><path class="st1" d="M243.5,159.5c-19,22.9-37.9,40.1-47.7,48.4h15c0.9,0,1.8,0.1,2.7,0.3c0.9-1.7,2.6-3.1,4.7-3.5     c14.3-3.1,65.8-19.4,130.5-100.8c1-1.2,2.3-2,3.7-2.4c-8.4-28-29.4-50.9-56.7-61.7C296.4,76.7,278.9,117,243.5,159.5z"/></g><path class="st0" d="M453.6,461.8c-0.3-6.5-4.5-12.1-10.6-14.4l-124.2-46.2h0l23.1-162.4c-25.3,13.2-54.8,16.6-78.2,16.6    c-20,0-35.5-2.5-40.2-3.3v29.9h38.3c3.9,0,7,3.1,7,7s-3.1,7-7,7h-38.3v67.6c0,17.5-6.5,34.1-17.2,47.8c-3.5,4.5-5.6,10.1-5.6,16.3    v19.1c0,17.8,14.4,32.2,32.2,32.2h204.5c9,0,16.3-7.3,16.3-16.2C453.6,462.3,453.6,462,453.6,461.8z M293.3,290.2    c-0.1,0.5-0.2,0.9-0.4,1.3c-0.2,0.4-0.4,0.8-0.6,1.2c-0.3,0.4-0.6,0.7-0.9,1.1s-0.7,0.6-1.1,0.9c-0.4,0.3-0.8,0.5-1.2,0.6    c-0.4,0.2-0.9,0.3-1.3,0.4c-0.4,0.1-0.9,0.1-1.4,0.1c-0.4,0-0.9,0-1.4-0.1c-0.4-0.1-0.9-0.2-1.3-0.4c-0.4-0.2-0.8-0.4-1.2-0.6    c-0.4-0.3-0.7-0.5-1.1-0.9c-0.3-0.3-0.6-0.7-0.9-1.1c-0.3-0.4-0.5-0.8-0.6-1.2c-0.2-0.4-0.3-0.9-0.4-1.3s-0.1-0.9-0.1-1.4    c0-1.8,0.8-3.6,2.1-5c1.6-1.6,4-2.4,6.3-1.9c0.5,0.1,0.9,0.2,1.3,0.4c0.4,0.2,0.8,0.4,1.2,0.6c0.4,0.3,0.7,0.5,1.1,0.9    c1.3,1.3,2,3.1,2,5C293.4,289.3,293.4,289.8,293.3,290.2z"/><path class="st0" d="M144.5,204.5c19.4-34.6,68.2-132.4,60.7-170c-0.1-0.5-0.1-0.9-0.1-1.4H58.4v174.8h85.2    C143.6,206.8,143.9,205.6,144.5,204.5z"/></g></g></svg>