<?xml version="1.0" ?><svg id="Layer_1" style="enable-background:new 0 0 512 512;" version="1.1" viewBox="0 0 512 512" xml:space="preserve" xmlns="http://www.w3.org/2000/svg" xmlns:xlink="http://www.w3.org/1999/xlink"><style type="text/css">
	.st0{fill:#1B3954;}
	.st1{fill:#16ADE1;}
</style><path class="st0" d="M476.5,160c-7.3-22.6-31.2-42.7-54.4-46.7c-110.7-16.4-221.5-16.4-332.2,0c-23.3,4-47.2,24.2-54.4,46.7  c-18,64.8-18,127.1,0,191.9c7.3,22.6,31.2,42.7,54.4,46.7c11.2,1.7,22.4,3.2,33.6,4.5v-28.4c0-3.9,3.1-7,7-7c3.9,0,7,3.1,7,7V404  c0,0.3,0,0.5-0.1,0.8c94.9,10,189.8,8,284.6-6c23.3-4,47.2-24.2,54.4-46.7C494.5,287.1,494.5,224.9,476.5,160z M78.7,155.6  c118.2-11.5,236.5-11.5,354.7,0c5.4,25.3,8.8,50.3,10.1,75.4H419c-2.9,0-5.5,1.8-6.5,4.4l-9.7,24.6L381,208.3  c-1-2.3-3.1-3.9-5.6-4.2c-2.5-0.3-5,0.8-6.5,2.8L349,233.9h-13.5l-25.5-41.6c-1.1-1.8-3-3-5.1-3.3c-2.1-0.3-4.3,0.5-5.8,2  l-42.9,42.9h-41.6c-3.1,0-5.8,2-6.7,4.9l-9.7,31.2L177,199.7c-0.7-2.3-2.6-4.2-5-4.8c-2.4-0.6-4.9,0.1-6.7,1.8L120.1,242H68  C69,213.2,72.5,184.5,78.7,155.6z M137.4,357.9c-0.1,0.4-0.2,0.9-0.4,1.3c-0.2,0.4-0.4,0.8-0.6,1.2c-0.3,0.4-0.5,0.8-0.9,1.1  c-0.3,0.3-0.7,0.6-1.1,0.9c-0.4,0.3-0.8,0.5-1.2,0.6c-0.4,0.2-0.9,0.3-1.3,0.4c-0.4,0.1-0.9,0.1-1.4,0.1c-1.9,0-3.6-0.8-5-2.1  c-0.3-0.3-0.6-0.7-0.9-1.1c-0.3-0.4-0.5-0.8-0.7-1.2c-0.2-0.4-0.3-0.9-0.4-1.3c-0.1-0.5-0.1-0.9-0.1-1.4s0-0.9,0.1-1.4  c0.1-0.4,0.2-0.9,0.4-1.3c0.2-0.4,0.4-0.8,0.7-1.2s0.5-0.7,0.9-1.1c1.6-1.6,4-2.4,6.3-1.9c0.5,0.1,0.9,0.2,1.3,0.4  c0.4,0.2,0.8,0.4,1.2,0.6c0.4,0.3,0.8,0.6,1.1,0.9c0.3,0.3,0.6,0.7,0.9,1.1c0.3,0.4,0.5,0.8,0.6,1.2c0.2,0.4,0.3,0.9,0.4,1.3  c0.1,0.4,0.1,0.9,0.1,1.4S137.5,357.4,137.4,357.9z M210.4,386.4c-8.5,0-15.5-6.9-15.5-15.5s6.9-15.5,15.5-15.5  c8.5,0,15.5,6.9,15.5,15.5S218.9,386.4,210.4,386.4z M266.6,386.4c-8.5,0-15.5-6.9-15.5-15.5s6.9-15.5,15.5-15.5  c8.5,0,15.5,6.9,15.5,15.5S275.1,386.4,266.6,386.4z M322.7,386.4c-8.5,0-15.5-6.9-15.5-15.5s6.9-15.5,15.5-15.5  c8.5,0,15.5,6.9,15.5,15.5S331.3,386.4,322.7,386.4z M438.8,328.6C317,337,195,337,73.2,328.6c-3.6-24.5-5.4-48.6-5.4-72.6H123  c1.9,0,3.6-0.7,5-2.1l39-39l24.4,81c0.9,2.9,3.6,5,6.7,5h0c3.1,0,5.8-2,6.7-4.9l15-48.2H259c1.9,0,3.6-0.7,5-2l38.7-38.7l22.9,37.4  c1.3,2.1,3.5,3.3,6,3.3h21c2.2,0,4.3-1.1,5.6-2.8l14.7-20l23.7,56.1c1.1,2.6,3.6,4.3,6.5,4.3h0.1c2.8,0,5.4-1.8,6.4-4.4l14.3-36.1  h20.1c0.1,0,0.1,0,0.2,0C444.8,272.7,443,300.5,438.8,328.6z"/></svg>