<?xml version="1.0" ?><svg id="Layer_1" style="enable-background:new 0 0 512 512;" version="1.1" viewBox="0 0 512 512" xml:space="preserve" xmlns="http://www.w3.org/2000/svg" xmlns:xlink="http://www.w3.org/1999/xlink"><style type="text/css">
	.st0{fill:#1B3954;}
	.st1{fill:#16ADE1;}
</style><g><g><path class="st0" d="M253.5,30c-92.3,1.3-167.3,77-167.8,169.3c-0.3,47.7,19,90.9,50.4,121.9c37.9,37.6,71,79.7,98.6,125.4    l17.2,28.4h-77.3c-3.9,0-7,3.1-7,7s3.1,7,7,7h163c3.9,0,7-3.1,7-7s-3.1-7-7-7h-77.3l17.2-28.4c27.4-45.3,59.7-87.4,97.6-124.4    c31.7-30.9,51.4-74.1,51.4-121.9C426.3,105.4,348.7,28.6,253.5,30z M256,330.4c-71.8,0-130.1-58.3-130.1-130.1    S184.2,70.3,256,70.3s130.1,58.2,130.1,130.1S327.8,330.4,256,330.4z"/><path class="st0" d="M369.5,479.3c-0.2-0.4-0.4-0.8-0.6-1.2c-0.3-0.4-0.6-0.7-0.9-1.1s-0.7-0.6-1.1-0.9c-0.4-0.3-0.8-0.5-1.2-0.6    c-0.4-0.2-0.9-0.3-1.3-0.4c-0.9-0.2-1.8-0.2-2.7,0c-0.4,0.1-0.9,0.2-1.3,0.4c-0.4,0.2-0.8,0.4-1.2,0.6s-0.7,0.5-1.1,0.9    s-0.6,0.7-0.9,1.1c-0.3,0.4-0.5,0.8-0.6,1.2c-0.2,0.4-0.3,0.9-0.4,1.3c-0.1,0.5-0.1,0.9-0.1,1.4s0.1,0.9,0.1,1.4    c0.1,0.4,0.2,0.9,0.4,1.3c0.2,0.4,0.4,0.8,0.6,1.2s0.6,0.7,0.9,1.1c1.3,1.3,3.1,2,4.9,2c1.8,0,3.6-0.8,5-2    c0.3-0.3,0.6-0.7,0.9-1.1c0.3-0.4,0.5-0.8,0.6-1.2c0.2-0.4,0.3-0.9,0.4-1.3c0.1-0.5,0.1-0.9,0.1-1.4s0-0.9-0.1-1.4    C369.8,480.2,369.7,479.7,369.5,479.3z"/><g><polygon class="st1" points="290.1,120.9 221.9,120.9 221.9,166.2 176.6,166.2 176.6,234.5 221.9,234.5 221.9,279.7 290.1,279.7      290.1,234.5 335.4,234.5 335.4,166.2 290.1,166.2    "/></g></g></g></svg>