<?xml version="1.0" ?><svg id="Layer_1" style="enable-background:new 0 0 512 512;" version="1.1" viewBox="0 0 512 512" xml:space="preserve" xmlns="http://www.w3.org/2000/svg" xmlns:xlink="http://www.w3.org/1999/xlink"><style type="text/css">
	.st0{fill:#1B3954;}
	.st1{fill:#16ADE1;}
</style><g><g><path class="st0" d="M379.5,367.4c-3.9,0-7-3.1-7-7s3.1-7,7-7h40.4c-0.7-3.2-1.6-6.3-2.8-9.3l-43-106.3    c-8.5-20.9-28.8-34.6-51.3-34.6h-10.9v-33.4c-36.8-14.6-72.9-15.2-108.2,0v33.4h-14.4c-22.6,0-42.8,13.7-51.3,34.6l-43,106.3    c-2.7,6.7-4.1,13.8-4.1,20.8c0,14.4,5.6,28.5,16.2,39.1c10.4,10.4,24.5,16.2,39.1,16.2h219.5c14.7,0,28.8-5.8,39.1-16.2    c10-10,15.5-23.1,16.1-36.6c0,0-0.1,0-0.1,0H379.5z M322.9,342.4h-37.4v37.4h-58.9v-37.4h-37.4v-58.9h37.4v-37.4h58.9v37.4h37.4    V342.4z M355.9,361.8c-0.1,0.5-0.2,0.9-0.4,1.3c-0.2,0.4-0.4,0.8-0.6,1.2c-0.3,0.4-0.5,0.7-0.9,1.1c-1.3,1.3-3.1,2-5,2    c-0.5,0-0.9,0-1.4-0.1c-0.4-0.1-0.9-0.2-1.3-0.4c-0.4-0.2-0.8-0.4-1.2-0.6c-0.4-0.3-0.7-0.5-1.1-0.9c-1.3-1.3-2-3.1-2-5    c0-1.8,0.8-3.7,2-5c0.3-0.3,0.7-0.6,1.1-0.9c0.4-0.3,0.8-0.5,1.2-0.6c0.4-0.2,0.9-0.3,1.3-0.4c2.3-0.5,4.7,0.3,6.3,1.9    c0.3,0.3,0.6,0.7,0.9,1.1c0.3,0.4,0.5,0.8,0.6,1.2c0.2,0.4,0.3,0.9,0.4,1.3c0.1,0.5,0.1,0.9,0.1,1.4    C356,360.9,356,361.3,355.9,361.8z"/><g><rect class="st1" height="18.7" width="56.4" x="156.9" y="434.2"/></g><g><rect class="st1" height="18.7" width="56.4" x="298.7" y="434.2"/></g><g><path class="st1" d="M457.7,104.7c-1-0.9-2-1.7-3-2.5c-8.8-4-17.7-7.6-26.6-11C315.8,48.4,196.2,48.4,84,91.2c0,0,0,0,0,0     c-8.9,3.4-17.8,7.1-26.6,11c-1,0.8-2.1,1.6-3,2.5C41.9,115.4,34,131.2,34,148.9c0,32.2,26.1,58.3,58.3,58.3s58.2-26.1,58.2-58.3     c0-5.4-0.8-10.7-2.1-15.7c71.1-19,144.1-19,215.2,0c-1.4,5-2.1,10.3-2.1,15.7c0,32.2,26.1,58.3,58.3,58.3     c32.2,0,58.3-26.1,58.3-58.3C478,131.2,470.1,115.4,457.7,104.7z"/></g></g></g></svg>