<?xml version="1.0" ?><svg id="Layer_1" style="enable-background:new 0 0 512 512;" version="1.1" viewBox="0 0 512 512" xml:space="preserve" xmlns="http://www.w3.org/2000/svg" xmlns:xlink="http://www.w3.org/1999/xlink"><style type="text/css">
	.st0{fill:#1B3954;}
	.st1{fill:#16ADE1;}
</style><g><g><g><path class="st1" d="M422,312.1c-3.9,0-7,3.1-7,7v134.8c0,15.1-12.3,27.3-27.3,27.3H283.9c-15.1,0-27.3-12.3-27.3-27.3v-27.3v0     h28.7v-23.2H129.9v23.2h28.7v0v61.7c0,3.9,3.1,7,7,7s7-3.1,7-7v-61.7v0h69.9v0v27.3c0,22.8,18.5,41.3,41.3,41.3h103.8     c22.8,0,41.3-18.5,41.3-41.3V319.1C429,315.3,425.9,312.1,422,312.1z"/></g><path class="st0" d="M251.8,56.8c0-22.1-17.9-40.1-40.1-40.1h-8.4c-22.1,0-40.1,17.9-40.1,40.1V86h88.5V56.8z M207.6,71.5    c-8.3,0-15-6.7-15-15s6.7-15,15-15c8.3,0,15,6.7,15,15S215.9,71.5,207.6,71.5z"/><g><g><path class="st1" d="M213.5,168.6c1.7,0.9,3.4,1.9,5.2,3.1c15.9,6.8,33.5,10.5,51.2,10.5c20.1,0,39.3-4.7,55.6-13.5l6.7-3.6      v-37.6c0-15.1-12.3-27.4-27.4-27.4H110.4C95.3,100,83,112.2,83,127.4v38.1c20.8-8.7,43-13.2,64.6-13.2      C171.7,152.2,193.8,157.7,213.5,168.6z M289.7,124c10.2,0,18.5,8.3,18.5,18.5c0,3.9-3.1,7-7,7c-3.9,0-7-3.1-7-7      c0-2.5-2-4.5-4.5-4.5c-3.9,0-7-3.1-7-7C282.7,127.1,285.8,124,289.7,124z"/></g></g><path class="st0" d="M332.2,362V180.9c-36.4,19.7-82.6,19.6-120,3.1c-1.8-1.1-3.6-2.2-5.5-3.2c-37.8-20.8-84.8-18-123.7-0.1v24.4    h40c3.9,0,7,3.1,7,7s-3.1,7-7,7H83V362c0,15.1,12.3,27.4,27.4,27.4h194.4C319.9,389.4,332.2,377.2,332.2,362z M148.5,219.2    c-0.5,0-0.9-0.1-1.4-0.1c-0.4-0.1-0.9-0.2-1.3-0.4c-0.4-0.2-0.8-0.4-1.2-0.6c-0.4-0.3-0.7-0.5-1.1-0.9c-1.3-1.3-2-3.1-2-4.9    c0-1.9,0.8-3.6,2-5c0.3-0.3,0.7-0.6,1.1-0.9c0.4-0.3,0.8-0.5,1.2-0.6c0.4-0.2,0.9-0.3,1.3-0.4c2.3-0.5,4.7,0.3,6.3,1.9    c1.3,1.3,2.1,3.1,2.1,5c0,1.8-0.8,3.6-2.1,4.9C152.1,218.4,150.3,219.2,148.5,219.2z M260.2,307.7h-29.4v29.4h-46.3v-29.4H155    v-46.3h29.4v-29.4h46.3v29.4h29.4V307.7z"/></g></g></svg>