<?xml version="1.0" ?><svg id="Layer_1" style="enable-background:new 0 0 512 512;" version="1.1" viewBox="0 0 512 512" xml:space="preserve" xmlns="http://www.w3.org/2000/svg" xmlns:xlink="http://www.w3.org/1999/xlink"><style type="text/css">
	.st0{fill:#1B3954;}
	.st1{fill:#16ADE1;}
</style><g><g><path class="st0" d="M78.1,312.1c-33.6,33.6-33.6,88.1,0,121.8c33.6,33.6,88.1,33.6,121.8,0l58-58L136.1,254.2L78.1,312.1z"/><path class="st0" d="M433.9,199.9c16.8-16.8,25.2-38.8,25.2-60.9c0-22-8.4-44.1-25.2-60.9c-33.6-33.6-88.1-33.6-121.8,0l-58,58    l121.8,121.8L433.9,199.9z"/><g><g><path class="st1" d="M244.3,146L146,244.3L267.7,366l98.3-98.3L244.3,146z M232.2,204.8c8.5-8.5,22.4-8.5,30.9,0      c8.5,8.5,8.5,22.4,0,30.9c-8.5,8.5-22.4,8.5-30.9,0C223.6,227.1,223.6,213.3,232.2,204.8z M248.9,307.2      c-8.5-8.5-8.5-22.4,0-30.9c8.5-8.5,22.4-8.5,30.9,0s8.5,22.4,0,30.9S257.4,315.8,248.9,307.2z"/></g></g><path class="st0" d="M106.7,228.4l30.3-30.3l-27.5-27.5c-2.7-2.7-2.7-7.2,0-9.9c2.7-2.7,7.2-2.7,9.9,0l27.5,27.5l32.5-32.5    l-41.9-41.9c-2.7-2.7-2.7-7.2,0-9.9c2.7-2.7,7.2-2.7,9.9,0l41.9,41.9l39.2-39.2l-28.5-28.5C183.1,61.3,161,52.9,139,52.9    c-22,0-44.1,8.4-60.9,25.2c-33.6,33.6-33.6,88.1,0,121.8L106.7,228.4z M119.6,87.9c0.3-0.3,0.7-0.6,1.1-0.9    c0.4-0.3,0.8-0.5,1.2-0.6c0.4-0.2,0.9-0.3,1.3-0.4c0.9-0.2,1.8-0.2,2.7,0c0.4,0.1,0.9,0.2,1.3,0.4c0.4,0.2,0.8,0.4,1.2,0.6    c0.4,0.3,0.7,0.5,1.1,0.9c0.3,0.3,0.6,0.7,0.9,1.1c0.3,0.4,0.5,0.8,0.6,1.2c0.2,0.4,0.3,0.9,0.4,1.3c0.1,0.4,0.1,0.9,0.1,1.4    s0,0.9-0.1,1.4c-0.1,0.4-0.2,0.9-0.4,1.3c-0.2,0.4-0.4,0.8-0.6,1.2c-0.3,0.4-0.5,0.7-0.9,1.1c-0.3,0.3-0.7,0.6-1.1,0.9    c-0.4,0.3-0.8,0.5-1.2,0.6c-0.4,0.2-0.9,0.3-1.3,0.4c-0.5,0.1-0.9,0.1-1.4,0.1c-0.5,0-0.9,0-1.4-0.1c-0.4-0.1-0.9-0.2-1.3-0.4    c-0.4-0.2-0.8-0.4-1.2-0.6s-0.7-0.6-1.1-0.9c-0.3-0.3-0.6-0.7-0.9-1.1s-0.5-0.8-0.7-1.2c-0.2-0.4-0.3-0.9-0.4-1.3    c-0.1-0.4-0.1-0.9-0.1-1.4C117.6,91,118.3,89.2,119.6,87.9z"/><path class="st0" d="M405.3,283.6l-35.1,35.1l12.8,12.8c2.7,2.7,2.7,7.2,0,9.9c-1.4,1.4-3.2,2.1-4.9,2.1s-3.6-0.7-4.9-2.1    l-12.8-12.8l-33.1,33.1l29.1,29.1c2.7,2.7,2.7,7.2,0,9.9c-1.4,1.4-3.2,2.1-4.9,2.1c-1.8,0-3.6-0.7-4.9-2.1l-29.1-29.1l-33.7,33.7    l28.5,28.5c33.6,33.6,88.1,33.6,121.8,0c33.6-33.6,33.6-88.1,0-121.8L405.3,283.6z M384.4,417.6c-0.1,0.5-0.2,0.9-0.4,1.3    c-0.2,0.4-0.4,0.8-0.6,1.2c-0.3,0.4-0.5,0.7-0.9,1.1c-0.3,0.3-0.7,0.6-1.1,0.9c-0.4,0.3-0.8,0.5-1.2,0.6c-0.4,0.2-0.9,0.3-1.3,0.4    c-0.5,0.1-0.9,0.1-1.4,0.1s-0.9,0-1.4-0.1c-0.4-0.1-0.9-0.2-1.3-0.4c-0.4-0.2-0.8-0.4-1.2-0.6c-0.4-0.3-0.7-0.5-1.1-0.9    c-0.3-0.3-0.6-0.7-0.9-1.1c-0.3-0.4-0.5-0.8-0.6-1.2c-0.2-0.4-0.3-0.9-0.4-1.3c-0.1-0.4-0.1-0.9-0.1-1.4c0-0.5,0-0.9,0.1-1.4    c0.1-0.4,0.2-0.9,0.4-1.3c0.2-0.4,0.4-0.8,0.6-1.2c0.3-0.4,0.5-0.7,0.9-1.1c0.3-0.3,0.7-0.6,1.1-0.9c0.4-0.3,0.8-0.5,1.2-0.6    c0.4-0.2,0.9-0.3,1.3-0.4c0.9-0.2,1.8-0.2,2.7,0c0.4,0.1,0.9,0.2,1.3,0.4c0.4,0.2,0.8,0.4,1.2,0.6c0.4,0.3,0.7,0.5,1.1,0.9    c0.3,0.3,0.6,0.7,0.9,1.1c0.3,0.4,0.5,0.8,0.6,1.2c0.2,0.4,0.3,0.9,0.4,1.3c0.1,0.5,0.1,0.9,0.1,1.4    C384.6,416.7,384.5,417.2,384.4,417.6z"/></g></g></svg>