<?xml version="1.0" ?><svg id="Layer_1" style="enable-background:new 0 0 512 512;" version="1.1" viewBox="0 0 512 512" xml:space="preserve" xmlns="http://www.w3.org/2000/svg" xmlns:xlink="http://www.w3.org/1999/xlink"><style type="text/css">
	.st0{fill:#1B3954;}
	.st1{fill:#16ADE1;}
</style><g><g><path class="st0" d="M435.5,407.6l35.4,35.4c7-9.1,11.1-20.4,11.1-32.8c0-29.7-24.1-53.8-53.8-53.8c-2.2,0-4.4,0.1-6.6,0.4    c0,0.3,0,0.5,0,0.8v52.5c0,17.9-6.8,34.7-19.3,47.5c7.7,4.2,16.5,6.6,25.8,6.6c12.3,0,23.7-4.2,32.8-11.1v0l-35.4-35.4    c-2.7-2.7-2.7-7.2,0-9.9C428.3,404.9,432.8,404.9,435.5,407.6z"/><g><g><path class="st1" d="M407.6,371.4h-19.5v11.3c0,3.9-3.1,7-7,7c-3.9,0-7-3.1-7-7v-11.3h-74.7v38.5c0,16.4,7.3,31.1,18.8,41      c9.5,8.2,21.8,13.1,35.3,13.1c14.5,0,27.7-5.7,37.4-15c10.3-9.9,16.7-23.7,16.7-39.1V371.4z M388,406.5      c-0.1,0.4-0.2,0.9-0.4,1.3c-0.2,0.4-0.4,0.8-0.6,1.2c-0.3,0.4-0.5,0.7-0.9,1.1c-0.3,0.3-0.7,0.6-1.1,0.9      c-0.4,0.3-0.8,0.5-1.2,0.7c-0.4,0.2-0.9,0.3-1.3,0.4c-0.5,0.1-0.9,0.1-1.4,0.1c-0.5,0-0.9,0-1.4-0.1c-0.5-0.1-0.9-0.2-1.3-0.4      c-0.4-0.2-0.8-0.4-1.2-0.7s-0.7-0.6-1.1-0.9c-0.3-0.3-0.6-0.7-0.9-1.1s-0.5-0.8-0.6-1.2c-0.2-0.4-0.3-0.9-0.4-1.3      c-0.1-0.4-0.1-0.9-0.1-1.4c0-0.4,0-0.9,0.1-1.4c0.1-0.4,0.2-0.9,0.4-1.3c0.2-0.4,0.4-0.8,0.6-1.2c0.3-0.4,0.6-0.8,0.9-1.1      c0.3-0.3,0.7-0.6,1.1-0.9c0.4-0.3,0.8-0.5,1.2-0.6c0.4-0.2,0.9-0.3,1.3-0.4c0.9-0.2,1.8-0.2,2.7,0c0.4,0.1,0.9,0.2,1.3,0.4      c0.4,0.2,0.8,0.4,1.2,0.6c0.4,0.3,0.7,0.6,1.1,0.9c0.3,0.3,0.6,0.7,0.9,1.1c0.3,0.4,0.5,0.8,0.6,1.2c0.2,0.4,0.3,0.9,0.4,1.3      s0.1,0.9,0.1,1.4C388.2,405.6,388.1,406,388,406.5z"/></g></g><g><path class="st1" d="M299.5,309.9v47.6h74.7h14h19.5v-47.6c0-14.9-6.1-28.5-15.9-38.3c-9.8-9.8-23.3-15.8-38.3-15.8     c-10.1,0-19.5,2.8-27.6,7.6C310.1,272.8,299.5,290.1,299.5,309.9z"/></g><g><path class="st1" d="M245.5,66.9c0-10.5-8.5-18.9-18.9-18.9h-97.2c-10.5,0-18.9,8.5-18.9,18.9v10.4h135.1V66.9z"/></g><path class="st0" d="M285.5,409.9v-38.5c0-2.6,0.7-4.9,1.9-7c-1.2-2.1-1.9-4.4-1.9-7v-47.6c0-23.9,12.8-46.4,33.3-58.6    c2.3-1.4,4.7-2.6,7.2-3.7V126.3c0-19.4-15.7-35-35-35H65c-19.4,0-35,15.7-35,35V429c0,19.3,15.7,35,35,35h225.9    c5.9,0,11.5-1.5,16.4-4.1C293.4,447,285.5,428.9,285.5,409.9z M136.1,381c2.7,2.7,2.7,7.2,0,9.9c-1.4,1.4-3.2,2.1-4.9,2.1    c-1.8,0-3.6-0.7-5-2.1l-17.1-17.1l-17.1,17.1c-1.4,1.4-3.2,2.1-4.9,2.1s-3.6-0.7-4.9-2.1c-2.7-2.7-2.7-7.2,0-9.9l17.1-17.1    L82,346.8c-2.7-2.7-2.7-7.2,0-9.9c2.7-2.7,7.2-2.7,9.9,0l17.1,17.1l17.1-17.1c2.7-2.7,7.2-2.7,9.9,0c2.7,2.7,2.7,7.2,0,9.9    L119,363.9L136.1,381z M141.6,269.4l-37,37c-1.4,1.4-3.2,2-4.9,2c-1.8,0-3.6-0.7-4.9-2l-18.2-18.2c-2.7-2.7-2.7-7.2,0-9.9    c2.7-2.7,7.2-2.7,9.9,0l13.3,13.3l32.1-32.1c2.7-2.7,7.2-2.7,9.9,0C144.3,262.2,144.3,266.7,141.6,269.4z M141.6,188.4l-37,37    c-1.4,1.4-3.2,2.1-4.9,2.1c-1.8,0-3.6-0.7-4.9-2.1l-18.2-18.2c-2.7-2.7-2.7-7.2,0-9.9c2.7-2.7,7.2-2.7,9.9,0l13.3,13.3l32.1-32.1    c2.7-2.7,7.2-2.7,9.9,0C144.3,181.3,144.3,185.7,141.6,188.4z M239.3,377.1h-72.9c-3.9,0-7-3.1-7-7c0-3.9,3.1-7,7-7h72.9    c3.9,0,7,3.1,7,7C246.3,373.9,243.1,377.1,239.3,377.1z M239.3,296.1h-72.9c-3.9,0-7-3.1-7-7c0-3.9,3.1-7,7-7h72.9    c3.9,0,7,3.1,7,7C246.3,293,243.1,296.1,239.3,296.1z M239.3,215.1h-72.9c-3.9,0-7-3.1-7-7c0-3.9,3.1-7,7-7h72.9c3.9,0,7,3.1,7,7    C246.3,212,243.1,215.1,239.3,215.1z M274.2,375c-1.3,1.3-3.1,2.1-4.9,2.1c-0.5,0-0.9-0.1-1.4-0.1c-0.5-0.1-0.9-0.2-1.3-0.4    c-0.4-0.2-0.8-0.4-1.2-0.6c-0.4-0.3-0.7-0.6-1.1-0.9c-0.3-0.3-0.6-0.7-0.9-1.1c-0.3-0.4-0.5-0.8-0.6-1.2c-0.2-0.4-0.3-0.9-0.4-1.3    c-0.1-0.5-0.1-0.9-0.1-1.4c0-0.5,0-0.9,0.1-1.4c0.1-0.4,0.2-0.9,0.4-1.3c0.2-0.4,0.4-0.8,0.6-1.2c0.3-0.4,0.5-0.7,0.9-1.1    c0.3-0.3,0.7-0.6,1.1-0.9c0.4-0.3,0.8-0.5,1.2-0.6c0.4-0.2,0.9-0.3,1.3-0.4c2.3-0.4,4.7,0.3,6.3,1.9c1.3,1.3,2.1,3.1,2.1,4.9    C276.3,371.9,275.5,373.7,274.2,375z M274.2,294.1c-1.3,1.3-3.1,2.1-4.9,2.1c-0.5,0-0.9,0-1.4-0.1c-0.5-0.1-0.9-0.2-1.3-0.4    c-0.4-0.2-0.8-0.4-1.2-0.7c-0.4-0.3-0.7-0.5-1.1-0.9c-0.3-0.3-0.6-0.7-0.9-1.1c-0.3-0.4-0.5-0.8-0.6-1.2c-0.2-0.4-0.3-0.9-0.4-1.3    c-0.1-0.4-0.1-0.9-0.1-1.4c0-1.8,0.8-3.6,2-4.9c0.3-0.3,0.7-0.6,1.1-0.9c0.4-0.3,0.8-0.5,1.2-0.6c0.4-0.2,0.9-0.3,1.3-0.4    c2.3-0.5,4.7,0.3,6.3,1.9c1.3,1.3,2.1,3.1,2.1,4.9C276.3,290.9,275.5,292.8,274.2,294.1z M274.2,213.1c-1.3,1.3-3.1,2.1-4.9,2.1    c-0.5,0-0.9,0-1.4-0.1c-0.5-0.1-0.9-0.2-1.3-0.4c-0.4-0.2-0.8-0.4-1.2-0.6c-0.4-0.3-0.7-0.6-1.1-0.9c-0.3-0.3-0.6-0.7-0.9-1.1    c-0.3-0.4-0.5-0.8-0.6-1.2c-0.2-0.4-0.3-0.9-0.4-1.3c-0.1-0.4-0.1-0.9-0.1-1.4c0-0.5,0-0.9,0.1-1.4c0.1-0.4,0.2-0.9,0.4-1.3    c0.2-0.4,0.4-0.8,0.6-1.2c0.3-0.4,0.5-0.7,0.9-1.1c0.3-0.3,0.7-0.6,1.1-0.9c0.4-0.3,0.8-0.5,1.2-0.6c0.4-0.2,0.9-0.3,1.3-0.4    c2.3-0.5,4.7,0.3,6.3,1.9c1.3,1.3,2.1,3.1,2.1,5C276.3,210,275.5,211.8,274.2,213.1z"/></g></g></svg>