<?xml version="1.0" ?><svg id="Layer_1" style="enable-background:new 0 0 512 512;" version="1.1" viewBox="0 0 512 512" xml:space="preserve" xmlns="http://www.w3.org/2000/svg" xmlns:xlink="http://www.w3.org/1999/xlink"><style type="text/css">
	.st0{fill:#1B3954;}
	.st1{fill:#16ADE1;}
</style><g><g><path class="st0" d="M451.1,236.9c0.6,6.4,0.9,12.8,0.9,19.2c0,19.7-2.9,39.2-8.6,57.9c19.1-3,33.7-19.6,33.7-39.5    C477.1,257.2,466.3,242.5,451.1,236.9z"/><g><path class="st1" d="M72,233.9L232.2,73.6C148.5,83.7,82.1,150.1,72,233.9z"/></g><g><path class="st1" d="M254.4,72.3c-1.4,0-2.8,0-4.3,0.1c0.1,1.9-0.6,3.8-2,5.2L76,249.7c-1.4,1.4-3.2,2.1-4.9,2.1     c-0.1,0-0.2,0-0.3,0c0,1.4-0.1,2.9-0.1,4.3c0,20,3.2,39.3,9.1,57.3L311.7,81.5C293.7,75.5,274.4,72.3,254.4,72.3z"/></g><g><path class="st1" d="M325.5,86.6c-0.3,0.9-0.9,1.7-1.6,2.4L87.4,325.6c-0.7,0.7-1.5,1.2-2.4,1.5c6.5,15.5,15.1,29.9,25.4,42.9     l258-258C355.4,101.7,341,93.1,325.5,86.6z"/></g><polygon class="st0" points="99,379.1 104,384.5 99.4,378.8   "/><path class="st0" d="M409.9,158.2l-34.1,34.1c-1.4,1.4-3.2,2.1-4.9,2.1s-3.6-0.7-5-2.1c-2.7-2.7-2.7-7.2,0-9.9l35.1-35.1    c0.3-0.3,0.6-0.5,0.9-0.7c-6.8-9.2-14.4-17.6-22.8-25.4c-0.1,0.1-0.2,0.2-0.3,0.3l-259,259c-0.1,0.1-0.2,0.2-0.3,0.3    c33.6,36.3,81.6,59,134.9,59c81.4,0,150.4-52.9,174.5-126.2c6-18.1,9.2-37.4,9.2-57.5c0-7.3-0.4-14.6-1.3-21.7    C433.5,206.6,424.1,180.7,409.9,158.2z M343,206.8c0.1-0.4,0.2-0.9,0.4-1.3c0.2-0.4,0.4-0.8,0.6-1.2c0.3-0.4,0.5-0.7,0.9-1.1    c0.3-0.3,0.7-0.6,1.1-0.9s0.8-0.5,1.2-0.6c0.4-0.2,0.9-0.3,1.3-0.4c2.3-0.5,4.7,0.3,6.3,1.9c1.3,1.3,2,3.1,2,4.9    c0,0.5,0,0.9-0.1,1.4c-0.1,0.4-0.2,0.9-0.4,1.3c-0.2,0.4-0.4,0.8-0.6,1.2c-0.3,0.4-0.6,0.7-0.9,1.1c-1.3,1.3-3.1,2.1-5,2.1    c-0.5,0-0.9-0.1-1.4-0.1c-0.4-0.1-0.9-0.2-1.3-0.4c-0.4-0.2-0.8-0.4-1.2-0.6c-0.4-0.3-0.7-0.6-1.1-0.9c-0.3-0.3-0.6-0.7-0.9-1.1    s-0.5-0.8-0.6-1.2c-0.2-0.4-0.3-0.9-0.4-1.3c-0.1-0.4-0.1-0.9-0.1-1.4S342.9,207.3,343,206.8z M292.4,388.5    c-1.3,1.1-2.9,1.6-4.5,1.6c-2,0-4-0.9-5.4-2.5c-9.7-11.7-19.2-17.6-28.2-17.6c-9,0-18.4,5.9-28.2,17.6c-2.5,3-6.9,3.4-9.9,0.9    c-3-2.5-3.4-6.9-0.9-9.9c12.5-15,25.6-22.7,38.9-22.7c13.3,0,26.4,7.6,39,22.7C295.8,381.6,295.4,386,292.4,388.5z M379.5,278.8    c-12.5,15-25.6,22.7-38.9,22.7s-26.4-7.6-38.9-22.7c-2.5-3-2.1-7.4,0.9-9.9c3-2.5,7.4-2.1,9.9,0.9c9.8,11.7,19.2,17.6,28.2,17.6    s18.4-5.9,28.2-17.6c2.5-3,6.9-3.4,9.9-0.9C381.6,271.4,382,275.9,379.5,278.8z"/><path class="st0" d="M56.7,256c0-1.5,0-3.1,0.1-4.6L57,242l0.4-3.7c-0.1,0.1-0.3,0.1-0.4,0.2c-13.2,6.6-22.2,20.1-22.2,35.8    c0,18.7,12.9,34.5,30.3,38.8c-4.4-14.5-7.1-29.4-8-44.6C56.8,264.4,56.7,260.2,56.7,256z"/></g></g></svg>