<?xml version="1.0" ?><svg id="Layer_1" style="enable-background:new 0 0 512 512;" version="1.1" viewBox="0 0 512 512" xml:space="preserve" xmlns="http://www.w3.org/2000/svg" xmlns:xlink="http://www.w3.org/1999/xlink"><style type="text/css">
	.st0{fill:#1B3954;}
	.st1{fill:#16ADE1;}
</style><g><g><g><path class="st1" d="M174.2,105.7c1.1-4.9,1.7-10.8,1.7-18.1c0-32.7-27-59.1-27-59.1s-27,26.5-27,59.1c0,7.3,0.6,13.2,1.7,18.1     H174.2z"/></g><g><g><path class="st1" d="M208.2,139c-3.8,5.3-10,8.7-16.9,8.8l-4.1,147.9l-0.1,2.9c75.6,12.2,148.6-62.3,225.2-19.7V118      C342.8,79.3,276.4,137,208.2,139z M335.2,220.5H311v24.2h-36.5v-24.2h-24.2V184h24.2v-24.2H311V184h24.2V220.5z"/></g></g><path class="st0" d="M198.1,126.7c0-3.9-3.1-7-7-7h-84.4c-3.9,0-7,3.1-7,7s3.1,7,7,7h13.5l10.3,349.8h36.8l5.9-188.3l4.4-159.6    l0.1-1.9h13.5C195,133.7,198.1,130.6,198.1,126.7z M155.9,185.1c0,3.9-3.1,7-7,7s-7-3.1-7-7v-0.9c0-3.9,3.1-7,7-7s7,3.1,7,7V185.1    z M155.9,158.8c0,3.9-3.1,7-7,7s-7-3.1-7-7v-25.1h14V158.8z"/></g></g></svg>