<?xml version="1.0" ?><svg id="Layer_1" style="enable-background:new 0 0 512 512;" version="1.1" viewBox="0 0 512 512" xml:space="preserve" xmlns="http://www.w3.org/2000/svg" xmlns:xlink="http://www.w3.org/1999/xlink"><style type="text/css">
	.st0{fill:#1B3954;}
	.st1{fill:#16ADE1;}
</style><path class="st0" d="M471.1,291.4c-5.2-23.3-12.1-46.1-20.7-68.4c-4.3-11.1-9.1-22-14.2-32.8c-5.2-10.8-10.1-28.8-21.9-34.5  c-8.6-4.1-18.9,3.1-26.8,6.8c-18.6,8.6-36.5,19.4-51.6,33.2l-50.6-40.6V36.7H263v57.7c0,3.9-3.1,7-7,7s-7-3.1-7-7V36.7h-22.2v118.5  l-50.6,40.6c-15.1-13.8-33-24.6-51.6-33.2c-7.9-3.6-18.2-10.9-26.8-6.8c-11.9,5.7-16.7,23.7-21.9,34.5C70.7,201,66,212,61.6,223.1  c-8.6,22.2-15.6,45.1-20.7,68.4c-10.2,46.1-13.4,93.7-9.3,140.7c0.9,10.5,0.8,23.5,7.4,32.3c11.8,15.9,45.5,9.8,62.2,9.1  c26-1,51.9-3.7,77.5-7.9c16.5-2.8,35.1-7.7,42.8-22.6c4.4-8.4,4.3-18.5,2.5-27.8c-1.8-9.3-5.1-18.3-6.8-27.6  c-5.1-27.8,3.9-56.1,4.6-84.4c0.6-25.8-6-51.8-18.9-74.2l13.9-13.9L256,176l39.2,39.2L309,229c-12.9,22.4-19.5,48.4-18.9,74.2  c0.7,28.3,9.7,56.6,4.6,84.4c-1.7,9.3-5,18.3-6.8,27.6c-1.8,9.3-1.9,19.4,2.5,27.8c7.7,14.9,26.3,19.9,42.8,22.6  c25.6,4.3,51.5,6.9,77.5,7.9c16.7,0.6,50.4,6.8,62.2-9.1c6.6-8.9,6.5-21.8,7.4-32.3C484.5,385.2,481.3,337.5,471.1,291.4z   M101.6,238.6c-7.8,20-14.1,40.9-18.8,62.1c-0.7,3.3-3.6,5.5-6.8,5.5c-0.5,0-1-0.1-1.5-0.2c-3.8-0.8-6.2-4.6-5.3-8.3  c4.8-21.8,11.4-43.4,19.4-64.1c1.4-3.6,5.5-5.4,9.1-4C101.2,231,103,235,101.6,238.6z M262.9,128.6c-0.1,0.4-0.2,0.9-0.4,1.3  c-0.2,0.4-0.4,0.8-0.6,1.2c-0.3,0.4-0.5,0.7-0.9,1.1c-1.3,1.3-3.1,2-4.9,2c-0.5,0-0.9,0-1.4-0.1c-0.4-0.1-0.9-0.2-1.3-0.4  c-0.4-0.2-0.8-0.4-1.2-0.6c-0.4-0.3-0.7-0.6-1.1-0.9c-0.3-0.3-0.6-0.7-0.9-1.1c-0.3-0.4-0.5-0.8-0.6-1.2c-0.2-0.4-0.3-0.9-0.4-1.3  c-0.1-0.5-0.1-0.9-0.1-1.4c0-0.5,0-0.9,0.1-1.4c0.1-0.4,0.2-0.9,0.4-1.3c0.2-0.4,0.4-0.8,0.6-1.2c0.3-0.4,0.6-0.7,0.9-1.1  c0.3-0.3,0.7-0.6,1.1-0.9c0.4-0.3,0.8-0.5,1.2-0.6c0.4-0.2,0.9-0.3,1.3-0.4c2.3-0.4,4.7,0.3,6.3,1.9c1.3,1.3,2.1,3.1,2.1,4.9  C263,127.6,262.9,128.1,262.9,128.6z"/></svg>