<?xml version="1.0" ?><svg id="Layer_1" style="enable-background:new 0 0 512 512;" version="1.1" viewBox="0 0 512 512" xml:space="preserve" xmlns="http://www.w3.org/2000/svg" xmlns:xlink="http://www.w3.org/1999/xlink"><style type="text/css">
	.st0{fill:#1B3954;}
	.st1{fill:#16ADE1;}
</style><g><g><path class="st0" d="M203.8,131.6h-23.2l-5-36.8h-19.1V18.1c0-3.9-3.1-7-7-7c-3.9,0-7,3.1-7,7v76.7h-19.1l-5,36.8H95.2v59h34.4    c3.9,0,7,3.1,7,7c0,3.9-3.1,7-7,7H95.2v29.3h34.4c3.9,0,7,3.1,7,7c0,3.9-3.1,7-7,7H95.2v29.3h34.4c3.9,0,7,3.1,7,7    c0,3.9-3.1,7-7,7H95.2v31.2h108.6V131.6z M157.6,289c-1.3,1.3-3.1,2-5,2c-1.8,0-3.6-0.7-4.9-2c-1.3-1.3-2.1-3.1-2.1-5    c0-1.8,0.7-3.6,2.1-4.9c1.3-1.3,3.1-2.1,4.9-2.1c1.8,0,3.6,0.8,5,2.1c1.3,1.3,2,3.1,2,4.9C159.6,285.9,158.9,287.7,157.6,289z     M157.6,245.8c-1.3,1.3-3.1,2-5,2c-1.8,0-3.6-0.7-4.9-2c-1.3-1.3-2.1-3.1-2.1-5c0-0.4,0-0.9,0.1-1.4c0.1-0.5,0.2-0.9,0.4-1.3    c0.2-0.4,0.4-0.8,0.6-1.2c0.3-0.4,0.5-0.7,0.9-1.1c0.3-0.3,0.7-0.6,1.1-0.9c0.4-0.3,0.8-0.5,1.2-0.6c0.4-0.2,0.9-0.3,1.3-0.4    c0.9-0.2,1.8-0.2,2.7,0c0.4,0.1,0.9,0.2,1.3,0.4c0.4,0.2,0.8,0.4,1.2,0.6c0.4,0.3,0.7,0.5,1.1,0.9c0.3,0.3,0.6,0.7,0.9,1.1    c0.3,0.4,0.5,0.8,0.6,1.2c0.2,0.4,0.3,0.9,0.4,1.3c0.1,0.5,0.1,0.9,0.1,1.4C159.6,242.7,158.9,244.5,157.6,245.8z M157.6,202.5    c-1.3,1.3-3.1,2-5,2c-0.5,0-0.9,0-1.4-0.1c-0.5-0.1-0.9-0.2-1.3-0.4c-0.4-0.2-0.8-0.4-1.2-0.7c-0.4-0.3-0.7-0.5-1.1-0.9    c-0.3-0.3-0.6-0.7-0.9-1.1c-0.3-0.4-0.5-0.8-0.6-1.2c-0.2-0.4-0.3-0.9-0.4-1.3c-0.1-0.5-0.1-0.9-0.1-1.4c0-1.8,0.7-3.6,2.1-4.9    c0.3-0.3,0.7-0.6,1.1-0.9c0.4-0.3,0.8-0.5,1.2-0.6c0.4-0.2,0.9-0.3,1.3-0.4c2.3-0.5,4.7,0.3,6.3,1.9c1.3,1.3,2,3.1,2,4.9    C159.6,199.4,158.9,201.2,157.6,202.5z"/><g><polygon class="st1" points="108,400.4 133,400.4 133,400.4 166,400.4 166,400.4 191,400.4 191,368.3 223.1,368.3 223.1,336.3      75.9,336.3 75.9,368.3 108,368.3    "/></g><path class="st0" d="M219.9,486.9H166v-72.5h-33v72.5H79.2c-3.9,0-7,3.1-7,7c0,3.9,3.1,7,7,7h140.7c3.9,0,7-3.1,7-7    C226.9,490.1,223.7,486.9,219.9,486.9z"/><g><g><path class="st1" d="M405,348.4h34.4c0.1,0,0.3,0,0.4,0v-23.4H325.3v118.5h114.5v-81.2c-0.1,0-0.3,0-0.4,0H405c-3.9,0-7-3.1-7-7      S401.2,348.4,405,348.4z M388.9,356.8c-0.1,0.5-0.2,0.9-0.4,1.3c-0.2,0.4-0.4,0.8-0.6,1.2c-0.3,0.4-0.5,0.7-0.9,1.1      c-0.3,0.3-0.7,0.6-1.1,0.9c-0.4,0.3-0.8,0.5-1.2,0.6c-0.4,0.2-0.9,0.3-1.3,0.4c-0.4,0.1-0.9,0.1-1.4,0.1c-0.4,0-0.9-0.1-1.4-0.1      c-0.4-0.1-0.9-0.2-1.3-0.4c-0.4-0.2-0.8-0.4-1.2-0.6c-0.4-0.3-0.7-0.5-1.1-0.9c-0.3-0.3-0.6-0.7-0.9-1.1      c-0.3-0.4-0.5-0.8-0.6-1.2c-0.2-0.4-0.3-0.9-0.4-1.3c-0.1-0.4-0.1-0.9-0.1-1.4c0-0.5,0.1-0.9,0.1-1.4s0.2-0.9,0.4-1.3      c0.2-0.4,0.4-0.8,0.6-1.2c0.3-0.4,0.5-0.7,0.9-1.1c1.6-1.6,4-2.4,6.3-1.9c0.5,0.1,0.9,0.2,1.3,0.4c0.4,0.2,0.8,0.4,1.2,0.6      c0.4,0.3,0.7,0.5,1.1,0.9c1.3,1.3,2,3.1,2,5C389,355.9,389,356.3,388.9,356.8z"/></g></g><path class="st0" d="M311.3,311.1h127c-6.1-26.2-29.5-45.8-57.6-45.8h-3.1v-25.1h-53.5v25.1h-3.1c-32.7,0-59.1,26.5-59.1,59.1    v149.8c0,10.8,8.8,19.6,19.6,19.6h138.8c10.8,0,19.6-8.8,19.6-19.6v-16.7H311.3V311.1z"/><g><polygon class="st1" points="360,180.6 360,180.6 341.6,180.6 341.6,180.6 341.6,226.3 360,226.3    "/></g><g><path class="st1" d="M305.6,226.3h22.1v-45.7c0,0,0,0,0,0l-22.1,0c-4.7,0-8.4,3.8-8.4,8.4v28.8     C297.1,222.5,300.9,226.3,305.6,226.3z"/></g><g><path class="st1" d="M404.5,217.8V189c0-4.7-3.8-8.4-8.4-8.4H374c0,0,0,0,0,0v45.7h22.1C400.7,226.3,404.5,222.5,404.5,217.8z"/></g></g></g></svg>