<?xml version="1.0" ?><svg id="Layer_1" style="enable-background:new 0 0 512 512;" version="1.1" viewBox="0 0 512 512" xml:space="preserve" xmlns="http://www.w3.org/2000/svg" xmlns:xlink="http://www.w3.org/1999/xlink"><style type="text/css">
	.st0{fill:#1B3954;}
	.st1{fill:#16ADE1;}
</style><g><g><path class="st0" d="M458.3,54.1c-24.6-24.6-64.4-24.6-89,0L155.2,268.2c-3.3,3.3-5.7,7.4-7,11.8l-20.8,73.3l30.9,30.9l0.7,0.7    l73.3-20.8c4.5-1.3,8.5-3.7,11.8-7l214.1-214.1C482.9,118.5,482.9,78.7,458.3,54.1z M290,232.3l-22.7,22.7l9.1,9.1    c2.7,2.7,2.7,7.2,0,9.9c-1.4,1.4-3.2,2.1-5,2.1s-3.6-0.7-5-2.1l-9.1-9.1l-14.7,14.7l9.1,9.1c2.7,2.7,2.7,7.2,0,9.9    c-1.4,1.4-3.2,2-5,2s-3.6-0.7-4.9-2l-9.1-9.1l-14.7,14.7l9.1,9.1c2.7,2.7,2.7,7.2,0,9.9c-1.4,1.4-3.2,2-5,2c-1.8,0-3.6-0.7-4.9-2    l-9.1-9.1l-18.3,18.3c-1.4,1.4-3.2,2-4.9,2s-3.6-0.7-5-2c-2.7-2.7-2.7-7.2,0-9.9l7.8-7.8l-9-9c-2.7-2.7-2.7-7.2,0-9.9    c2.7-2.7,7.2-2.7,9.9,0l9,9l14.7-14.7l-9-9c-2.7-2.7-2.7-7.2,0-9.9c2.7-2.7,7.2-2.7,9.9,0l9,9l14.7-14.7l-9-9    c-2.7-2.7-2.7-7.2,0-9.9c2.7-2.7,7.2-2.7,9.9,0l9,9l14.7-14.7l-9-9c-2.7-2.7-2.7-7.2,0-9.9c2.7-2.7,7.2-2.7,9.9,0l9,9l8.7-8.7    c2.7-2.7,7.2-2.7,9.9,0C292.8,225.1,292.8,229.5,290,232.3z M320.9,179.6c-5.3,5.3-14,5.3-19.3,0c-5.3-5.3-5.3-14,0-19.3    c5.3-5.3,14-5.3,19.3,0C326.3,165.6,326.3,174.3,320.9,179.6z M352.1,210.8c-5.3,5.3-14,5.3-19.3,0c-5.3-5.3-5.3-14,0-19.3    c5.3-5.3,14-5.3,19.3,0C357.4,196.8,357.4,205.5,352.1,210.8z M410.6,148.2l-24.2,24.2c-3.6,3.6-9.6,3.6-13.2,0L340,139.1    c-3.6-3.6-3.6-9.6,0-13.2l24.2-24.2c3.6-3.7,9.6-3.7,13.2,0l33.2,33.2C414.3,138.6,414.3,144.5,410.6,148.2z"/><g><g><path class="st1" d="M127,394.5c-1.4,1.4-3.2,2-5,2c-1.8,0-3.6-0.7-4.9-2c-2.7-2.7-2.7-7.2,0-9.9l10.9-10.9l-10.5-10.5L41.7,439      c-8.5,8.5-8.5,22.4,0,30.9c8.5,8.5,22.4,8.5,30.9,0l75.8-75.8l-10.5-10.5L127,394.5z M106.4,415.1c-0.3,0.3-0.7,0.6-1.1,0.9      c-0.4,0.3-0.8,0.5-1.2,0.7c-0.4,0.2-0.9,0.3-1.3,0.4c-0.5,0.1-0.9,0.1-1.4,0.1c-0.5,0-0.9,0-1.4-0.1c-0.5-0.1-0.9-0.2-1.3-0.4      c-0.4-0.2-0.8-0.4-1.2-0.7c-0.4-0.3-0.7-0.5-1.1-0.9c-0.3-0.3-0.6-0.7-0.9-1.1c-0.3-0.4-0.5-0.8-0.6-1.2      c-0.2-0.4-0.3-0.9-0.4-1.3c-0.1-0.5-0.1-0.9-0.1-1.4c0-0.5,0-0.9,0.1-1.4c0.1-0.5,0.2-0.9,0.4-1.3c0.2-0.4,0.4-0.8,0.6-1.2      c0.3-0.4,0.5-0.7,0.9-1.1c0.3-0.3,0.7-0.6,1.1-0.9c0.4-0.3,0.8-0.5,1.2-0.6c0.4-0.2,0.9-0.3,1.3-0.4c0.9-0.2,1.8-0.2,2.7,0      c0.5,0.1,0.9,0.2,1.3,0.4c0.4,0.2,0.8,0.4,1.2,0.6c0.4,0.3,0.7,0.6,1.1,0.9c0.3,0.3,0.6,0.7,0.9,1.1c0.3,0.4,0.5,0.8,0.6,1.2      c0.2,0.4,0.3,0.9,0.4,1.3s0.1,0.9,0.1,1.4C108.5,412,107.7,413.8,106.4,415.1z"/></g></g></g></g></svg>