<?xml version="1.0" ?><svg id="Layer_1" style="enable-background:new 0 0 512 512;" version="1.1" viewBox="0 0 512 512" xml:space="preserve" xmlns="http://www.w3.org/2000/svg" xmlns:xlink="http://www.w3.org/1999/xlink"><style type="text/css">
	.st0{fill:#1B3954;}
	.st1{fill:#16ADE1;}
</style><path class="st0" d="M429.1,78c-31.6-23.4-73.3-3.9-102.8,13c-5,2.9-21.2,16.6-21,2.8c0.1-17.6,0.5-35.2,0.5-52.8h-33.3v61.5  c0,3.9-3.1,7-7,7s-7-3.1-7-7V41.1H234v110.2c0,51.3-34.8,96.2-84.5,108.9l-47.7,12.2c-29.7,7.6-50.4,34.4-50.4,65v122.6h58.5v-44.4  c0-16.6,18.6-16.6,29.5-10.4c16.1,9.2,27.3,24.1,42.2,34.9c56.6,40.9,150.1,42.2,204.4-3.5c38.2-32.1,55.7-85.1,65.1-132.5  c7.5-38.2,9.5-77.3,9.4-116.3C460.5,152.4,460.7,101.4,429.1,78z M260.5,124.9c0.3-0.3,0.7-0.6,1.1-0.9c0.4-0.3,0.8-0.5,1.2-0.6  c0.4-0.2,0.9-0.3,1.3-0.4c0.9-0.2,1.8-0.2,2.7,0c0.5,0.1,0.9,0.2,1.3,0.4c0.4,0.2,0.8,0.4,1.2,0.6c0.4,0.3,0.7,0.5,1.1,0.9  c0.3,0.3,0.6,0.7,0.9,1.1c0.3,0.4,0.5,0.8,0.6,1.2c0.2,0.4,0.3,0.9,0.4,1.3c0.1,0.4,0.1,0.9,0.1,1.4c0,1.8-0.8,3.6-2,4.9  c-0.3,0.3-0.7,0.6-1.1,0.9c-0.4,0.3-0.8,0.5-1.2,0.6c-0.4,0.2-0.9,0.3-1.3,0.4c-0.5,0.1-0.9,0.1-1.4,0.1c-0.5,0-0.9,0-1.4-0.1  c-0.4-0.1-0.9-0.2-1.3-0.4c-0.4-0.2-0.8-0.4-1.2-0.6c-0.4-0.3-0.7-0.6-1.1-0.9c-1.3-1.3-2.1-3.1-2.1-4.9  C258.5,128,259.2,126.2,260.5,124.9z M365,411.5c-20.1,16.9-49.8,26.6-81.7,26.6c-30.8,0-60.8-8.9-82.4-24.5  c-3.1-2.3-3.8-6.6-1.6-9.8c2.3-3.1,6.6-3.8,9.8-1.6c19.2,13.9,46.3,21.9,74.2,21.9c28.6,0,55.1-8.5,72.7-23.3c3-2.5,7.4-2.1,9.9,0.9  C368.3,404.6,367.9,409,365,411.5z"/></svg>