<?xml version="1.0" ?><svg id="Layer_1" style="enable-background:new 0 0 512 512;" version="1.1" viewBox="0 0 512 512" xml:space="preserve" xmlns="http://www.w3.org/2000/svg" xmlns:xlink="http://www.w3.org/1999/xlink"><style type="text/css">
	.st0{fill:#1B3954;}
	.st1{fill:#16ADE1;}
</style><g><g><path class="st0" d="M323.6,114.1l4.2,0.5c2.4,0.3,4.7,1.2,6.5,2.5c1.8-0.8,3.8-1.2,5.8-1.2c0.4,0,0.8,0,1.2,0.1    c9.7,0.8,18.6,1.2,27.2,1.2c13.1,0,25.8-1.1,37.7-3.3c4-0.7,7.9-1.6,11.7-2.6c0.8-2.9,1.3-5.9,1.3-9.1c0-17.9-14.6-32.5-32.5-32.5    c-8.1,0-15.4,2.9-21.1,7.8c-5.7-4.9-13.1-7.8-21.1-7.8c-18,0-32.5,14.6-32.5,32.5c0,3.7,0.6,7.3,1.8,10.6    C316.9,113.3,320.3,113.7,323.6,114.1z"/><path class="st0" d="M418,340.4c-1.7-6.5-5.3-12.2-10.3-16.5c6.9-6,11.3-14.8,11.3-24.6c0-8.3-3.1-15.8-8.2-21.6    c-25.6,16.2-57.1,28-95.6,36c1.9,3.9,4.6,7.3,7.9,10.2c-4.2,3.6-7.4,8.2-9.3,13.5c-3.8-1.5-7.9-2.3-12.2-2.3    c-9.8,0-18.7,4.4-24.6,11.3c-6-6.9-14.8-11.3-24.6-11.3c-9.8,0-18.7,4.4-24.6,11.3c-6-6.9-14.8-11.3-24.6-11.3    c-9.8,0-18.7,4.4-24.6,11.3c-3.4-3.9-7.6-7-12.4-8.9c-4.4,1-8.8,2.2-13.2,3.4c-10.2,2.8-20.1,6.2-29.4,10.1    c-13.1,5.4-25.3,11.9-36.1,19.2c-2.4,1.6-4.5,3.1-6.5,4.6c-2.2,1.6-4.3,3.3-6.3,4.9c1.3,3.3,3.2,6.3,5.5,9    c-4.9,5.7-7.8,13-7.8,21.1c0,17.9,14.6,32.5,32.5,32.5c9.9,0,18.7-4.4,24.6-11.3c6,6.9,14.8,11.3,24.6,11.3    c9.8,0,18.7-4.4,24.6-11.3c6,6.9,14.8,11.3,24.6,11.3c9.8,0,18.7-4.4,24.6-11.3c6,6.9,14.8,11.3,24.6,11.3    c9.9,0,18.7-4.4,24.6-11.3c6,6.9,14.8,11.3,24.6,11.3c9.8,0,18.7-4.4,24.6-11.3c6,6.9,14.8,11.3,24.6,11.3    c9.9,0,18.7-4.4,24.6-11.3c6,6.9,14.8,11.3,24.6,11.3c18,0,32.5-14.6,32.5-32.5c0-8.1-2.9-15.4-7.8-21.1    c4.9-5.7,7.8-13.1,7.8-21.1C432.7,356.2,426.8,346.2,418,340.4z"/><g><path class="st1" d="M368.4,131.2c-9.5,0-18.9-0.5-28.4-1.3c-0.7,15.9-2.3,31.6-4.9,46.9c-0.2,1.4-0.5,2.8-0.7,4.2     c-2,11.1-4.5,22.4-7.6,33.4c-8.9,32.2-21.9,62.4-38.8,90.1c0.3-0.1,0.7-0.1,1-0.2c7.6-1.2,15.2-2.6,22.8-4.2     c38.5-7.9,76.3-20.9,106.8-45.1c0.4-0.4,0.9-0.7,1.3-1.1c40.8-32.9,64.3-85.8,62.9-138c-0.3-9.3-10.7-14.6-18.6-9.5     c-16.6,10.8-35.8,17.5-55.6,21.2C395.4,130.1,381.8,131.2,368.4,131.2z"/></g><g><g><path class="st1" d="M79.5,358.4c12.1-8.1,25.1-14.9,38.6-20.5c10.1-4.2,20.5-7.7,31-10.6c23.2-6.5,47-10.4,70.9-13.6      c-0.6-2.1-0.3-4.5,1.2-6.3c0.1-0.1,5.3-6.8,11.5-17.2c6.2-10.5,13.4-24.8,17.5-40.2c1-3.7,4.8-5.9,8.6-4.9c3.7,1,5.9,4.8,5,8.6      c-7,26.3-21.7,48.9-28.2,58.1c11.4-1.5,22.9-2.9,34.3-4.5c14.8-22.3,32.1-54.7,43.6-96.5c2.8-10.2,5.3-20.9,7.3-32.2      c0.2-1.3,0.5-2.6,0.7-4c2.4-14.4,4.1-29.8,4.8-46c-1.4-0.2-2.8-0.3-4.2-0.5c-24.6-3-49.1-7.6-73.7-10.7      c-40.1-5.1-81.9-6.3-119.6,8.3c-60.2,23.3-95.4,82.1-96.8,145c-0.4,19.3-0.9,38.7-1.4,58c-0.3,14.6-0.7,29.1-1,43.7l-0.2,2.2      c-1,11.4,13,17.5,20.8,9c0.1-0.1,0.2-0.2,0.2-0.3c6.7-7.3,14.2-13.9,22.2-19.9C74.7,361.7,77.1,360.1,79.5,358.4z M257.1,228.1      c0.1-0.4,0.2-0.9,0.4-1.3c0.2-0.4,0.4-0.8,0.6-1.2c0.3-0.4,0.6-0.7,0.9-1.1c0.3-0.3,0.7-0.6,1.1-0.9c0.4-0.3,0.8-0.5,1.2-0.6      c0.4-0.2,0.9-0.3,1.3-0.4c0.9-0.2,1.8-0.2,2.7,0c0.4,0.1,0.9,0.2,1.3,0.4c0.4,0.2,0.8,0.4,1.2,0.6c0.4,0.3,0.7,0.6,1.1,0.9      c0.3,0.3,0.6,0.7,0.9,1.1c0.3,0.4,0.5,0.8,0.6,1.2c0.2,0.4,0.3,0.9,0.4,1.3c0.1,0.5,0.1,0.9,0.1,1.4s0,0.9-0.1,1.4      c-0.1,0.4-0.2,0.9-0.4,1.3c-0.2,0.4-0.4,0.8-0.6,1.2c-0.3,0.4-0.5,0.7-0.9,1.1c-0.3,0.3-0.7,0.6-1.1,0.9      c-0.4,0.3-0.8,0.5-1.2,0.6c-0.4,0.2-0.9,0.3-1.3,0.4c-0.4,0.1-0.9,0.1-1.4,0.1c-0.4,0-0.9-0.1-1.4-0.1c-0.4-0.1-0.9-0.2-1.3-0.4      c-0.4-0.2-0.8-0.4-1.2-0.6c-0.4-0.3-0.7-0.6-1.1-0.9c-0.3-0.3-0.6-0.7-0.9-1.1c-0.3-0.4-0.5-0.8-0.6-1.2      c-0.2-0.4-0.3-0.9-0.4-1.3c-0.1-0.5-0.1-0.9-0.1-1.4S257,228.6,257.1,228.1z M80.8,197.9c14.1-21.7,34-38,57.5-47.1      c3.6-1.4,7.7,0.4,9.1,4c1.4,3.6-0.4,7.7-4,9.1c-20.8,8-38.3,22.4-50.8,41.7c-1.3,2.1-3.6,3.2-5.9,3.2c-1.3,0-2.6-0.4-3.8-1.1      C79.6,205.4,78.7,201.1,80.8,197.9z"/></g></g></g></g></svg>