<?xml version="1.0" ?><svg id="Layer_1" style="enable-background:new 0 0 512 512;" version="1.1" viewBox="0 0 512 512" xml:space="preserve" xmlns="http://www.w3.org/2000/svg" xmlns:xlink="http://www.w3.org/1999/xlink"><style type="text/css">
	.st0{fill:#1B3954;}
	.st1{fill:#16ADE1;}
</style><path class="st0" d="M429.3,57.8H82.7c-24.7,0-44.2,21.1-42.3,45.7l24.1,311.6c1.7,22.1,20.1,39.2,42.3,39.2h293.8  c21.9,0,40.2-16.7,42.3-38.5l28.9-311.6C473.9,79.2,454.3,57.8,429.3,57.8z M65.1,101.6c-0.3-3.9,2.6-7.2,6.4-7.5  c3.9-0.3,7.2,2.6,7.5,6.4l3,39.1c0.3,3.9-2.6,7.2-6.4,7.5c-0.2,0-0.4,0-0.5,0c-3.6,0-6.7-2.8-7-6.5L65.1,101.6z M83.8,165.9  c-0.1,0.5-0.2,0.9-0.4,1.3c-0.2,0.4-0.4,0.8-0.6,1.2c-0.3,0.4-0.5,0.7-0.9,1.1c-0.3,0.3-0.7,0.6-1.1,0.9c-0.4,0.3-0.8,0.5-1.2,0.6  c-0.4,0.2-0.9,0.3-1.3,0.4s-0.9,0.1-1.4,0.1c-0.5,0-0.9,0-1.4-0.1c-0.4-0.1-0.9-0.2-1.3-0.4c-0.4-0.2-0.8-0.4-1.2-0.6  c-0.4-0.3-0.8-0.5-1.1-0.9c-1.3-1.3-2-3.1-2-5c0-0.5,0-0.9,0.1-1.4c0.1-0.4,0.2-0.9,0.4-1.3c0.2-0.4,0.4-0.8,0.6-1.2  c0.3-0.4,0.6-0.7,0.9-1.1c0.3-0.3,0.7-0.6,1.1-0.9c0.4-0.3,0.8-0.5,1.2-0.6c0.4-0.2,0.9-0.3,1.3-0.4c0.9-0.2,1.8-0.2,2.7,0  c0.5,0.1,0.9,0.2,1.3,0.4c0.4,0.2,0.8,0.4,1.2,0.6c0.4,0.3,0.7,0.5,1.1,0.9c0.3,0.3,0.6,0.7,0.9,1.1s0.5,0.8,0.6,1.2  c0.2,0.4,0.3,0.9,0.4,1.3c0.1,0.5,0.1,0.9,0.1,1.4S83.9,165.5,83.8,165.9z M224.8,407.4c-20.1,11.6-53.3-8.2-74.1-44.2  c-20.8-36-21.4-74.7-1.3-86.3c20.1-11.6,53.3,8.2,74.1,44.2C244.4,357.1,244.9,395.8,224.8,407.4z M361.3,363.1  c-20.8,36-54,55.9-74.1,44.2s-19.5-50.2,1.3-86.3c20.8-36,54-55.9,74.1-44.2C382.6,288.5,382.1,327.1,361.3,363.1z M398.9,208.7  c0,6.9-5.6,12.5-12.5,12.5H278.4l43-62.8c2.2-3.2,1.4-7.5-1.8-9.7c-3.2-2.2-7.5-1.4-9.7,1.8l-45.7,66.7c-0.8,1.2-1.2,2.6-1.2,4  H125.6c-6.9,0-12.5-5.6-12.5-12.5v-80.3c0-6.9,5.6-12.5,12.5-12.5h260.9c6.9,0,12.5,5.6,12.5,12.5V208.7z"/></svg>