<?xml version="1.0" ?><svg id="Layer_1" style="enable-background:new 0 0 512 512;" version="1.1" viewBox="0 0 512 512" xml:space="preserve" xmlns="http://www.w3.org/2000/svg" xmlns:xlink="http://www.w3.org/1999/xlink"><style type="text/css">
	.st0{fill:#1B3954;}
	.st1{fill:#16ADE1;}
</style><g><g><path class="st0" d="M201.7,333c-8.4-7.3-15.9-15.6-22.4-24.7c-0.6-0.8-1.2-1.6-1.7-2.5c-8.1,2.8-16.8,4.4-25.8,4.8    c-1.2,0-2.5,0.1-3.7,0.1s-2.5,0-3.7-0.1c-13.7-0.5-26.7-4.1-38.2-10c0.6-1,0.9-2.2,0.9-3.4v-44.3c0-3.9-3.1-7-7-7s-7,3.1-7,7v39.5    c-22.3-16.7-36.8-43.4-36.8-73.5c0-50.7,41.1-91.8,91.8-91.8c13.9,0,27,3.1,38.8,8.6c3.2,1.5,6.4,3.2,9.4,5.1    c1.2,0.7,2.4,1.5,3.5,2.3c0,0,0,0,0.1,0.1c1.8,1.2,3.5,2.5,5.2,3.8c1,0.8,1.9,1.5,2.8,2.3c1.8,1.5,3.5,3.1,5.1,4.8    c1,1,2,2.1,3,3.1c0.5,0.5,1,1.1,1.4,1.6c0.9,1.1,1.9,2.2,2.7,3.3c0,0,0,0,0,0c0.8,1,1.5,2,2.3,3c0.5,0.7,1.1,1.5,1.6,2.2    c0,0,0,0,0,0c0.6,0.8,1.1,1.7,1.7,2.6c0.5,0.9,1.1,1.7,1.5,2.5c0.4,0.7,0.8,1.3,1.1,2l0,0c1,1.8,1.9,3.6,2.8,5.5    c5.6,11.8,8.6,25,8.6,38.9c0,17.5-4.9,33.9-13.4,47.8c0.9,1.5,1.8,2.9,2.7,4.3c5.5,8.1,12.5,15.1,20.6,20.6    c0.3,0.2,0.6,0.4,0.9,0.6c14.8-20.6,23.5-45.9,23.5-73.3c0-25.5-7.5-49.2-20.6-69l-1.2-1.7c-0.3-0.4-0.5-0.8-0.8-1.1    c-0.3-0.4-0.5-0.7-0.8-1.1c-0.7-1-1.5-2-2.2-3c-0.3-0.4-0.6-0.8-0.9-1.1c-3-3.9-6.3-7.6-9.8-11.2c-0.5-0.5-0.9-1-1.4-1.4    c-1.1-1.1-2.3-2.2-3.4-3.2c-0.5-0.4-0.9-0.9-1.4-1.3c-0.6-0.5-1.1-1-1.7-1.5c-1.1-1-2.3-1.9-3.4-2.8    c-21.6-17.2-48.9-27.5-78.6-27.5C78.4,92.8,22,149.3,22,218.9c0,64.4,48.2,117.5,110.5,125.1v53.4H96.3v31h36.3v52.8h31v-52.8    h36.3v-31h-36.3V344C177.1,342.3,189.9,338.6,201.7,333z"/><g><path class="st1" d="M403.7,30.8v31H437l-66,66c-21.4-16.7-48.3-26.6-77.5-26.6c-19.2,0-37.3,4.3-53.6,11.9     c8.4,7.3,15.9,15.6,22.4,24.7c0.6,0.8,1.1,1.6,1.7,2.5c9.3-3.2,19.2-4.9,29.5-4.9c24.1,0,46,9.3,62.3,24.4     c1.8,1.6,3.5,3.3,5.1,5.1c4.1,4.4,7.8,9.3,10.9,14.5h-33.2c-3.9,0-7,3.1-7,7s3.1,7,7,7h37.1c1,0,2-0.2,2.9-0.6     c4.3,10.7,6.7,22.3,6.7,34.5c0,50.7-41.1,91.8-91.8,91.8c-14.1,0-27.4-3.2-39.3-8.8c-4.3-2.1-8.5-4.4-12.4-7.1     c-9.5-6.5-17.8-14.7-24.3-24.3c-2.8-4.1-5.3-8.5-7.4-13.1c-5.4-11.7-8.4-24.8-8.4-38.5c0-17.5,4.9-33.9,13.4-47.8     c-0.8-1.4-1.8-2.9-2.7-4.3c-5.5-8.1-12.4-15.1-20.6-20.6c-0.3-0.2-0.6-0.4-0.9-0.6c-14.8,20.7-23.5,46-23.5,73.3     c0,22.2,5.7,43,15.8,61.1c2.3,4.1,4.8,8.1,7.5,11.9c6.8,9.6,15,18.2,24.2,25.6c4,3.2,8.1,6.1,12.4,8.7     c19.3,11.9,41.9,18.8,66.2,18.8c69.6,0,126.1-56.4,126.1-126.1c0-29.2-9.9-56.1-26.6-77.5l66-66v34.5h31V30.8H403.7z"/></g><path class="st0" d="M95.1,222.9c-1.3,1.3-2,3.1-2,4.9c0,1.8,0.8,3.7,2,5c1.3,1.3,3.1,2.1,5,2.1c0.5,0,0.9,0,1.4-0.1    c0.4-0.1,0.9-0.2,1.3-0.4c0.4-0.2,0.8-0.4,1.2-0.6c0.4-0.3,0.7-0.5,1.1-0.9c1.3-1.3,2-3.1,2-5c0-1.8-0.8-3.6-2-4.9    c-1.3-1.3-3.1-2.1-5-2.1S96.4,221.6,95.1,222.9z"/><g><path class="st1" d="M314.5,190.3c0.3,0.4,0.5,0.7,0.9,1.1c1.3,1.3,3.1,2,5,2c0.5,0,0.9,0,1.4-0.1c0.4-0.1,0.9-0.2,1.3-0.4     c0.4-0.2,0.8-0.4,1.2-0.6c0.4-0.3,0.8-0.6,1.1-0.9c0.3-0.3,0.6-0.7,0.9-1.1c0.3-0.4,0.5-0.8,0.6-1.2c0.2-0.4,0.3-0.9,0.4-1.3     c0.1-0.5,0.1-0.9,0.1-1.4s0-0.9-0.1-1.4c-0.1-0.4-0.2-0.9-0.4-1.3c-0.2-0.4-0.4-0.8-0.6-1.2c-0.3-0.4-0.5-0.8-0.9-1.1     c-1.3-1.3-3.1-2-5-2s-3.6,0.8-5,2c-0.3,0.3-0.6,0.7-0.9,1.1c-0.3,0.4-0.5,0.8-0.6,1.2c-0.2,0.4-0.3,0.9-0.4,1.3     c-0.1,0.5-0.1,0.9-0.1,1.4s0,0.9,0.1,1.4c0.1,0.4,0.2,0.9,0.4,1.3C314,189.5,314.3,189.9,314.5,190.3z"/></g></g></g></svg>