<?xml version="1.0" ?><svg id="Layer_1" style="enable-background:new 0 0 512 512;" version="1.1" viewBox="0 0 512 512" xml:space="preserve" xmlns="http://www.w3.org/2000/svg" xmlns:xlink="http://www.w3.org/1999/xlink"><style type="text/css">
	.st0{fill:#1B3954;}
	.st1{fill:#16ADE1;}
</style><path class="st0" d="M485.3,168.6L355.9,39.2c-8.8-8.8-23-8.8-31.8,0L44.7,318.5c-8.8,8.8-8.8,23,0,31.8l129.4,129.4  c8.8,8.8,23,8.8,31.8,0l135.1-135.1c-0.1-0.1-0.3-0.2-0.4-0.4L325.5,329c-2.7-2.7-2.7-7.2,0-9.9c2.7-2.7,7.2-2.7,9.9,0l15.2,15.2  c0.1,0.1,0.3,0.3,0.4,0.4l134.3-134.3C494,191.6,494,177.3,485.3,168.6z M154.6,347l-20-20c-2.7-2.7-7.2-2.7-9.9,0s-2.7,7.2,0,9.9  l20,20c-11.8,7.3-27.4,5.8-37.6-4.4c-11.9-11.9-11.9-31.2,0-43.1c11.9-11.9,31.2-11.9,43.1,0C160.4,319.6,161.9,335.2,154.6,347z   M219.4,411.8l-20-20c-2.7-2.7-7.2-2.7-9.9,0c-2.7,2.7-2.7,7.2,0,9.9l20,20c-11.8,7.3-27.4,5.8-37.6-4.4  c-11.9-11.9-11.9-31.2,0-43.1c11.9-11.9,31.2-11.9,43.1,0C225.2,384.4,226.7,400.1,219.4,411.8z M223.9,277.7l-20-20  c-2.7-2.7-7.2-2.7-9.9,0c-2.7,2.7-2.7,7.2,0,9.9l20,20c-11.8,7.3-27.4,5.8-37.6-4.4c-11.9-11.9-11.9-31.2,0-43.1  c11.9-11.9,31.2-11.9,43.1,0C229.7,250.3,231.2,265.9,223.9,277.7z M289,342l-20.3-20.3c-2.7-2.7-7.2-2.7-9.9,0  c-2.7,2.7-2.7,7.2,0,9.9l20.5,20.5c-11.8,7.6-27.7,6.3-38.1-4.1c-11.9-11.9-11.9-31.2,0-43.1c11.9-11.9,31.2-11.9,43.1,0  C294.4,315,295.9,330.3,289,342z M293.5,207.9l-20.3-20.3c-2.7-2.7-7.2-2.7-9.9,0c-2.7,2.7-2.7,7.2,0,9.9l20.5,20.5  c-11.8,7.6-27.7,6.3-38.1-4.1c-11.9-11.9-11.9-31.2,0-43.1c11.9-11.9,31.2-11.9,43.1,0C298.9,180.9,300.4,196.2,293.5,207.9z   M324.2,313.1c-0.1,0.5-0.2,0.9-0.4,1.3c-0.2,0.4-0.4,0.8-0.6,1.2c-0.3,0.4-0.5,0.7-0.9,1.1c-1.3,1.3-3.1,2-4.9,2  c-0.5,0-0.9,0-1.4-0.1c-0.5-0.1-0.9-0.2-1.3-0.4c-0.4-0.2-0.8-0.4-1.2-0.6c-0.4-0.3-0.7-0.5-1.1-0.9c-1.3-1.3-2.1-3.1-2.1-5  c0-1.8,0.8-3.7,2.1-4.9c0.3-0.3,0.7-0.6,1.1-0.9c0.4-0.3,0.8-0.5,1.2-0.7c0.4-0.2,0.9-0.3,1.3-0.4c2.3-0.4,4.7,0.3,6.3,1.9  c0.3,0.3,0.6,0.7,0.9,1.1c0.3,0.4,0.5,0.8,0.6,1.2c0.2,0.4,0.3,0.9,0.4,1.3c0.1,0.4,0.1,0.9,0.1,1.4  C324.3,312.2,324.3,312.7,324.2,313.1z M358.3,272.8L338,252.4c-2.7-2.7-7.2-2.7-9.9,0c-2.7,2.7-2.7,7.2,0,9.9l20.5,20.5l0,0  c-11.8,7.6-27.7,6.3-38.1-4.1c-11.9-11.9-11.9-31.2,0-43.1c11.9-11.9,31.2-11.9,43.1,0C363.7,245.7,365.2,261,358.3,272.8z   M362.8,138.6l-20.3-20.3c-2.7-2.7-7.2-2.7-9.9,0c-2.7,2.7-2.7,7.2,0,9.9l20.5,20.5c-11.8,7.6-27.7,6.3-38.1-4.1  c-11.9-11.9-11.9-31.2,0-43.1c11.9-11.9,31.2-11.9,43.1,0C368.2,111.6,369.7,126.9,362.8,138.6z M427.6,203.4l-20.4-20.3  c-2.7-2.7-7.2-2.7-9.9,0c-2.7,2.7-2.7,7.2,0,9.9l20.5,20.5l0,0c-11.8,7.6-27.7,6.3-38.1-4.1c-11.9-11.9-11.9-31.2,0-43.1  c11.9-11.9,31.2-11.9,43.1,0C433,176.4,434.5,191.8,427.6,203.4z"/></svg>