<?xml version="1.0" ?><svg id="Layer_1" style="enable-background:new 0 0 512 512;" version="1.1" viewBox="0 0 512 512" xml:space="preserve" xmlns="http://www.w3.org/2000/svg" xmlns:xlink="http://www.w3.org/1999/xlink"><style type="text/css">
	.st0{fill:#1B3954;}
	.st1{fill:#16ADE1;}
</style><g><g><path class="st0" d="M240.5,138.7c-24.2-6.8-41.9-29-41.9-55.3c0-0.5,0-1.1,0-1.6c-36.9,9.1-70.4,26.9-98.2,51.1l44.8,44.8    C172.5,155.3,205.4,141.8,240.5,138.7z"/><path class="st0" d="M271.5,138.7c35.1,3.1,68.1,16.6,95.2,39l44.8-44.8c-27.8-24.2-61.3-42-98.2-51.1c0,0.6,0,1.1,0,1.6    C313.4,109.7,295.6,131.9,271.5,138.7z"/><path class="st0" d="M256,233.6c-8.6,20-21,38.4-36.8,54.3c-32.3,32.4-75.2,50.6-121,51.1c12.8,75.5,78.6,133,157.7,133    s144.9-57.5,157.7-133c-45.7-0.6-88.6-18.7-121-51.1C277,272,264.6,253.6,256,233.6z M222.8,358.1c-7.1,8.2-14.6,12.4-22.4,12.4    s-15.3-4.2-22.4-12.4c-2.5-2.9-2.2-7.3,0.7-9.9c2.9-2.5,7.4-2.2,9.9,0.7c4.3,5,8.3,7.5,11.8,7.5s7.5-2.5,11.8-7.5    c2.5-2.9,6.9-3.3,9.9-0.7C225,350.8,225.3,355.2,222.8,358.1z M299.8,349c4.3,5,8.3,7.5,11.8,7.5s7.5-2.5,11.8-7.5    c2.5-2.9,6.9-3.3,9.9-0.7c2.9,2.5,3.3,6.9,0.7,9.9c-7.1,8.2-14.6,12.4-22.4,12.4s-15.3-4.2-22.4-12.4c-2.5-2.9-2.2-7.3,0.7-9.9    C292.9,345.7,297.3,346.1,299.8,349z"/><g><g><path class="st1" d="M256,126.8c24,0,43.4-19.4,43.4-43.4c0-1.6-0.1-3.2-0.3-4.7C296.8,56.9,278.4,40,256,40      s-40.8,16.9-43.1,38.7c-0.2,1.6-0.3,3.1-0.3,4.7C212.6,107.4,232,126.8,256,126.8z M237,76.4h12V64.4c0-3.9,3.1-7,7-7s7,3.1,7,7      v11.9h12c3.9,0,7,3.1,7,7c0,3.9-3.1,7-7,7h-12v12c0,3.9-3.1,7-7,7s-7-3.1-7-7v-12h-12c-3.9,0-7-3.1-7-7      C230,79.5,233.2,76.4,237,76.4z"/></g></g><g><g><path class="st1" d="M264,152.2c-2.5-0.1-5-0.2-7.5-0.2H253v0c-87,1.6-157,72.6-157,160c0,4.4,0.2,8.7,0.5,13      c87.6-0.3,158.6-70.9,159.5-158.4h0c0.9,87.5,71.9,158.1,159.5,158.4c0.3-4.3,0.5-8.6,0.5-13C416,226.3,348.6,156.4,264,152.2z       M194.9,211.6l-40.7,40.7c-1.4,1.4-3.2,2.1-4.9,2.1s-3.6-0.7-4.9-2.1c-2.7-2.7-2.7-7.2,0-9.9l40.7-40.7c2.7-2.7,7.2-2.7,9.9,0      C197.7,204.5,197.7,208.9,194.9,211.6z M211.6,194.6l-0.3,0.3c-1.4,1.4-3.2,2-4.9,2c-1.8,0-3.6-0.7-5-2.1      c-2.7-2.7-2.7-7.2,0-9.9l0.3-0.3c2.7-2.7,7.2-2.7,9.9,0C214.4,187.5,214.4,191.9,211.6,194.6z"/></g></g></g></g></svg>