<?xml version="1.0" ?><svg id="Layer_1" style="enable-background:new 0 0 512 512;" version="1.1" viewBox="0 0 512 512" xml:space="preserve" xmlns="http://www.w3.org/2000/svg" xmlns:xlink="http://www.w3.org/1999/xlink"><style type="text/css">
	.st0{fill:#1B3954;}
	.st1{fill:#16ADE1;}
</style><g><g><path class="st0" d="M169.5,103.6c0-7.8,6.4-14.2,14.2-14.2h144.6c7.8,0,14.2,6.4,14.2,14.2v54.4h38.8v-54.4c0-29.2-23.8-53-53-53    H183.7c-29.2,0-53,23.8-53,53v54.4h38.8V103.6z"/><path class="st0" d="M73.8,283.4c-0.9,0-1.9,0-2.8-0.1v153.1c0,13.8,13.1,25,29.2,25h311.7c16.1,0,29.2-11.2,29.2-25V283.2    c-0.9,0.1-1.8,0.1-2.8,0.1H73.8z M317.3,399.3H283v34.3h-54v-34.3h-34.3v-54H229V311h54v34.3h34.3V399.3z"/><g><g><path class="st1" d="M404.8,201.6h55.7v-7.3c0-12.3-10-22.2-22.2-22.2H73.8c-12.3,0-22.2,10-22.2,22.2v52.8      c0,12.3,10,22.3,22.2,22.3h364.5c12.3,0,22.2-10,22.2-22.3v-31.5h-55.7c-3.9,0-7-3.1-7-7S400.9,201.6,404.8,201.6z M387.9,213.5      c-1.3,1.3-3.1,2-4.9,2c-1.9,0-3.6-0.8-5-2c-1.3-1.3-2-3.1-2-5s0.8-3.6,2-5c1.3-1.3,3.1-2,5-2s3.6,0.7,4.9,2      c1.3,1.3,2.1,3.1,2.1,5S389.2,212.2,387.9,213.5z"/></g></g></g></g></svg>