<?xml version="1.0" ?><svg id="Layer_1" style="enable-background:new 0 0 512 512;" version="1.1" viewBox="0 0 512 512" xml:space="preserve" xmlns="http://www.w3.org/2000/svg" xmlns:xlink="http://www.w3.org/1999/xlink"><style type="text/css">
	.st0{fill:#1B3954;}
	.st1{fill:#16ADE1;}
</style><g><g><path class="st0" d="M272.8,102.3v52.8h32.6v-52.8c7-5.1,11.5-13.3,11.5-22.6c0-15.4-12.5-27.9-27.9-27.9    c-15.4,0-27.9,12.5-27.9,27.9C261.3,89.1,265.8,97.3,272.8,102.3z"/><g><ellipse class="st1" cx="182.7" cy="77" rx="56.8" ry="16"/></g><g><ellipse class="st1" cx="395.5" cy="77" rx="56.8" ry="16"/></g><path class="st0" d="M495.6,431.8c-2.7-2.7-7.2-2.7-9.9,0l-14.3,14.3h-71v-30.8c0-1-0.2-1.9-0.6-2.7c21.8-5.2,40.9-17.4,54.8-34.2    c14.5-17.5,23.1-40,23.1-64.5c0-24.5-8.7-46.9-23.1-64.5c-2.1-2.5-4.3-4.9-6.5-7.2c-18.3-18.3-43.7-29.7-71.7-29.7H355v-33    c0-5.8-4.7-10.5-10.5-10.5H233.7c-5.8,0-10.5,4.7-10.5,10.5v33H82.3l-38.4-38.4H14.3v65.4h63c3.9,0,7,3.1,7,7s-3.1,7-7,7h-63v26.2    h188.3l40.5,81.8h-68.4c0-14.2,0-28.4,0-42.6c-56.2-20.8-104.2,30.5-160.3,9.7c0,34.8,0,69.6,0,104.3    c56.2,20.8,104.1-30.5,160.3-9.7c0-15.9,0-31.8,0-47.7H250l19.6,39.7h38v0v30.8h-71l-20.8-20.8c-2.7-2.7-7.2-2.7-9.9,0    c-2.7,2.7-2.7,7.2,0,9.9l22.9,22.9c1.3,1.3,3.1,2.1,4.9,2.1h80.9h78.8h80.9c1.9,0,3.6-0.7,4.9-2.1l16.4-16.4    C498.4,438.9,498.4,434.5,495.6,431.8z M124.2,251.5c-1.3,1.3-3.1,2-5,2c-1.9,0-3.6-0.8-5-2c-1.3-1.3-2-3.1-2-5c0-1.9,0.7-3.6,2-5    c1.3-1.3,3.1-2,5-2c1.8,0,3.6,0.7,5,2c1.3,1.3,2,3.1,2,5C126.2,248.4,125.5,250.2,124.2,251.5z M117.1,390.1h-12.9v11.5H76.2    v-11.5H63.3V362h12.9v-11.5h28.1V362h12.9V390.1z M376.4,249.4c35.6,0,64.5,28.9,64.5,64.5c0,35.6-28.9,64.5-64.5,64.5h-1.6    L311,249.4H376.4z M321.6,446.1v-30.8v0h54.8c3.4,0,6.7-0.2,10-0.5c0,0.2,0,0.3,0,0.5v30.8H321.6z"/></g></g></svg>