<?xml version="1.0" ?><svg id="Layer_1" style="enable-background:new 0 0 512 512;" version="1.1" viewBox="0 0 512 512" xml:space="preserve" xmlns="http://www.w3.org/2000/svg" xmlns:xlink="http://www.w3.org/1999/xlink"><style type="text/css">
	.st0{fill:#1B3954;}
	.st1{fill:#16ADE1;}
</style><g><g><g><g><path class="st1" d="M448.4,163c0-45.3-27.4-82-61.2-82c-33.8,0-61.2,36.7-61.2,82c0,38.9,20.2,71.4,47.3,79.9L358.5,364      l-6.8,55.7c-2.6,21.3,14,40,35.5,40s38-18.8,35.5-40l-6.8-55.7l-14.8-121.1C428.2,234.4,448.4,201.9,448.4,163z M387.2,115      c-11.1,0-27.2,18.7-27.2,48c0,3.9-3.1,7-7,7s-7-3.1-7-7c0-37.1,21.3-62,41.2-62c3.9,0,7,3.1,7,7S391.1,115,387.2,115z"/></g></g><rect class="st0" height="17.3" width="112.2" x="117.8" y="105.6"/><g><path class="st1" d="M101.7,91.6h144.4c4.3,0,7.7-3.4,7.7-7.7V60.1c0-4.3-3.4-7.7-7.7-7.7H101.7c-4.3,0-7.7,3.5-7.7,7.7v23.8     C93.9,88.2,97.4,91.6,101.7,91.6z"/></g><path class="st0" d="M226.5,155.7h-2.2v-18.8H123.5v18.8h-2.2c-31.8,0-57.6,25.8-57.6,57.6v230.2c0,8.9,7.2,16.2,16.2,16.2H268    c8.9,0,16.2-7.2,16.2-16.2v-30.6H152.3V226.5h131.9v-13.3C284.1,181.4,258.3,155.7,226.5,155.7z M121.2,193.7    c-10.8,0-19.6,8.8-19.6,19.6c0,3.9-3.1,7-7,7s-7-3.1-7-7c0-18.5,15.1-33.6,33.6-33.6c3.9,0,7,3.1,7,7S125.1,193.7,121.2,193.7z"/><g><g><path class="st1" d="M166.3,398.9h117.9v-29.1h0h-60.6c-3.9,0-7-3.1-7-7s3.1-7,7-7h60.6h0v-29h0h-60.6c-3.9,0-7-3.1-7-7      s3.1-7,7-7h60.6h0v-29h0h-60.6c-3.9,0-7-3.1-7-7s3.1-7,7-7h60.6h0v-29.1H166.3V398.9z M194.1,275.3c0.1-0.5,0.2-0.9,0.4-1.3      s0.4-0.8,0.6-1.2c0.3-0.4,0.5-0.7,0.9-1.1c0.3-0.3,0.7-0.6,1.1-0.9c0.4-0.3,0.8-0.5,1.2-0.6c0.4-0.2,0.9-0.3,1.3-0.4      c0.9-0.2,1.8-0.2,2.7,0c0.4,0.1,0.9,0.2,1.3,0.4c0.4,0.2,0.8,0.4,1.2,0.6s0.7,0.6,1.1,0.9c0.3,0.3,0.6,0.7,0.9,1.1      c0.3,0.4,0.5,0.8,0.7,1.2c0.2,0.4,0.3,0.9,0.4,1.3c0.1,0.5,0.1,0.9,0.1,1.4c0,0.4,0,0.9-0.1,1.4c-0.1,0.4-0.2,0.9-0.4,1.3      c-0.2,0.4-0.4,0.8-0.7,1.2c-0.3,0.4-0.5,0.7-0.9,1.1c-1.3,1.3-3.1,2.1-5,2.1c-0.5,0-0.9-0.1-1.4-0.1c-0.4-0.1-0.9-0.2-1.3-0.4      c-0.4-0.2-0.8-0.4-1.2-0.6c-0.4-0.3-0.8-0.5-1.1-0.9c-0.3-0.3-0.6-0.7-0.9-1.1c-0.3-0.4-0.5-0.8-0.6-1.2      c-0.2-0.4-0.3-0.9-0.4-1.3c-0.1-0.5-0.1-0.9-0.1-1.4C194,276.2,194,275.8,194.1,275.3z M194.1,318.3c0.1-0.4,0.2-0.9,0.4-1.3      s0.4-0.8,0.6-1.2c0.3-0.4,0.5-0.7,0.9-1.1c0.3-0.3,0.7-0.6,1.1-0.9c0.4-0.3,0.8-0.5,1.2-0.6c0.4-0.2,0.9-0.3,1.3-0.4      c2.3-0.5,4.7,0.3,6.3,1.9c0.3,0.3,0.6,0.7,0.9,1.1c0.3,0.4,0.5,0.8,0.7,1.2c0.2,0.4,0.3,0.9,0.4,1.3c0.1,0.5,0.1,0.9,0.1,1.4      s0,0.9-0.1,1.4c-0.1,0.4-0.2,0.9-0.4,1.3c-0.2,0.4-0.4,0.8-0.7,1.2c-0.3,0.4-0.5,0.8-0.9,1.1c-1.3,1.3-3.1,2.1-5,2.1      c-0.5,0-0.9-0.1-1.4-0.1c-0.4-0.1-0.9-0.2-1.3-0.4c-0.4-0.2-0.8-0.4-1.2-0.6c-0.4-0.3-0.8-0.5-1.1-0.9c-1.3-1.3-2-3.1-2-4.9      C194,319.3,194,318.8,194.1,318.3z M194.1,361.4c0.1-0.5,0.2-0.9,0.4-1.3s0.4-0.8,0.6-1.2c0.3-0.4,0.5-0.7,0.9-1.1      s0.7-0.6,1.1-0.9c0.4-0.3,0.8-0.5,1.2-0.6c0.4-0.2,0.9-0.3,1.3-0.4c2.3-0.5,4.7,0.3,6.3,1.9c0.3,0.3,0.6,0.7,0.9,1.1      c0.3,0.4,0.5,0.8,0.7,1.2c0.2,0.4,0.3,0.9,0.4,1.3c0.1,0.5,0.1,0.9,0.1,1.4c0,0.4,0,0.9-0.1,1.4c-0.1,0.4-0.2,0.9-0.4,1.3      c-0.2,0.4-0.4,0.8-0.7,1.2c-0.3,0.4-0.5,0.7-0.9,1.1c-1.3,1.3-3.1,2.1-5,2.1c-0.5,0-0.9-0.1-1.4-0.1c-0.4-0.1-0.9-0.2-1.3-0.4      c-0.4-0.2-0.8-0.4-1.2-0.6c-0.4-0.3-0.8-0.5-1.1-0.9c-0.3-0.3-0.6-0.7-0.9-1.1c-0.3-0.4-0.5-0.8-0.6-1.2      c-0.2-0.4-0.3-0.9-0.4-1.3c-0.1-0.5-0.1-0.9-0.1-1.4C194,362.3,194,361.8,194.1,361.4z"/></g></g></g></g></svg>