<?xml version="1.0" ?><svg id="Layer_1" style="enable-background:new 0 0 512 512;" version="1.1" viewBox="0 0 512 512" xml:space="preserve" xmlns="http://www.w3.org/2000/svg" xmlns:xlink="http://www.w3.org/1999/xlink"><style type="text/css">
	.st0{fill:#1B3954;}
	.st1{fill:#16ADE1;}
</style><g><g><g><g><path class="st1" d="M184,396.3l-54.9-54.9L23.5,447l9.2,9.2c25.3,25.3,66.2,25.3,91.5,0L184,396.3z M115.9,438.4      c-10,10-23.3,15.5-37.5,15.5c-3.9,0-7-3.1-7-7s3.1-7,7-7c10.4,0,20.2-4.1,27.6-11.4c2.7-2.7,7.2-2.7,9.9,0      C118.6,431.2,118.6,435.6,115.9,438.4z"/></g></g><path class="st0" d="M484.1,99.6l-58.4-58.4c-6-6-15.8-5.9-21.6,0.3l-247.4,263c-5.6,5.9-5.4,15.2,0.3,21l42.7,42.7    c5.8,5.8,15.1,5.9,21,0.3l263-247.4C490,115.5,490.1,105.7,484.1,99.6z M210.8,333.5l-18.9-18.9l76.3-81.1l23.7,23.7L210.8,333.5z     M355.6,205.8c-1.4,1.4-3.2,2.1-5,2.1s-3.6-0.7-5-2.1l-26.1-26.1c-2.7-2.7-2.7-7.2,0-9.9c2.7-2.7,7.2-2.7,9.9,0l26.1,26.1    C358.3,198.6,358.3,203.1,355.6,205.8z M387,178c-1.4,1.4-3.2,2.1-5,2.1s-3.6-0.7-5-2.1l-29.7-29.7c-2.7-2.7-2.7-7.2,0-9.9    c2.7-2.7,7.2-2.7,9.9,0l29.7,29.7C389.7,170.8,389.7,175.3,387,178z M418.3,150.2c-1.4,1.4-3.2,2.1-5,2.1s-3.6-0.7-5-2.1    L375.2,117c-2.7-2.7-2.7-7.2,0-9.9c2.7-2.7,7.2-2.7,9.9,0l33.2,33.2C421.1,143,421.1,147.4,418.3,150.2z M449.7,122.3    c-1.4,1.4-3.2,2.1-5,2.1s-3.6-0.7-5-2.1L403,85.6c-2.7-2.7-2.7-7.2,0-9.9c2.7-2.7,7.2-2.7,9.9,0l36.7,36.7    C452.4,115.2,452.4,119.6,449.7,122.3z"/><path class="st0" d="M241.9,460.6H139.5l-5.5,5.5c-3.2,3.2-6.5,6-10.1,8.5h117.9c3.9,0,7-3.1,7-7    C248.9,463.8,245.8,460.6,241.9,460.6z"/><path class="st0" d="M272.5,461.8c-0.4-0.3-0.8-0.5-1.2-0.6c-0.4-0.2-0.9-0.3-1.3-0.4c-0.9-0.2-1.8-0.2-2.7,0    c-0.5,0.1-0.9,0.2-1.3,0.4c-0.4,0.2-0.8,0.4-1.2,0.6c-0.4,0.3-0.7,0.5-1.1,0.9c-1.3,1.3-2,3.1-2,4.9c0,1.8,0.7,3.6,2,5    c0.3,0.3,0.7,0.6,1.1,0.9c0.4,0.3,0.8,0.5,1.2,0.6c0.4,0.2,0.9,0.3,1.3,0.4c0.5,0.1,0.9,0.1,1.4,0.1c0.5,0,0.9,0,1.4-0.1    c0.4-0.1,0.9-0.2,1.3-0.4c0.4-0.2,0.8-0.4,1.2-0.6c0.4-0.3,0.7-0.6,1.1-0.9c1.3-1.3,2-3.1,2-5c0-1.8-0.8-3.6-2-4.9    C273.2,462.4,272.9,462.1,272.5,461.8z"/></g></g></svg>