<?xml version="1.0" ?><svg id="Layer_1" style="enable-background:new 0 0 512 512;" version="1.1" viewBox="0 0 512 512" xml:space="preserve" xmlns="http://www.w3.org/2000/svg" xmlns:xlink="http://www.w3.org/1999/xlink"><style type="text/css">
	.st0{fill:#1B3954;}
	.st1{fill:#16ADE1;}
</style><g><g><path class="st0" d="M68.9,408.9v22.6c0,11.2,9.1,20.4,20.4,20.4h43.4v-80.2l-50.3,18.1C74.3,392.7,68.9,400.3,68.9,408.9z"/><g><path class="st1" d="M230.4,306.7h-33.9l38.8,167.9c0.1,0.5,0.2,1.1,0.2,1.6h117.7L231.8,310.4     C230.9,309.3,230.5,308,230.4,306.7z"/></g><g><path class="st1" d="M256.6,249.1v32.6c1,0.1,2,0.4,2.9,1l183.6,112.9v-99.8c-0.6,0-1.1-0.1-1.7-0.2L256.6,249.1z"/></g><g><path class="st1" d="M423.4,153.7h-93.8l113.5,76.6v-56.9C443.1,162.5,434.3,153.7,423.4,153.7z"/></g><g><path class="st1" d="M439.2,244.5l-126-85c-2-1.4-3.1-3.6-3.1-5.8h-33.9c-10.9,0-19.6,8.8-19.6,19.6v61.6c0.6,0,1.1,0.1,1.7,0.2     l184.8,46.5v-35.9c0,0,0,0,0,0C441.7,245.7,440.4,245.3,439.2,244.5z"/></g><g><path class="st1" d="M253.1,295.2c-2.2,3.6-5.2,6.5-8.9,8.6l123.3,168.4c0.9,1.2,1.3,2.7,1.3,4.1h5.6c36.8,0,66.9-29,68.5-65.4     c-1.2,0-2.5-0.3-3.6-1L253.1,295.2z"/></g><g><g><path class="st1" d="M182.4,306.7h-16c-10.9,0-19.6,8.8-19.6,19.6v130.2c0,10.9,8.8,19.6,19.6,19.6h24.1l-11.6-47.9      c-0.9-3.8,1.4-7.5,5.2-8.5c3.8-0.9,7.5,1.4,8.5,5.2l12,49.6c0.1,0.6,0.2,1.1,0.2,1.6h16.6l-38.8-167.9      C182.4,307.8,182.4,307.3,182.4,306.7z M183.9,403.5c0.4,0.3,0.7,0.5,1.1,0.9c0.3,0.3,0.6,0.7,0.9,1.1c0.3,0.4,0.5,0.8,0.6,1.2      c0.2,0.4,0.3,0.9,0.4,1.3c0.1,0.5,0.1,0.9,0.1,1.4c0,0.5,0,0.9-0.1,1.4c-0.1,0.4-0.2,0.9-0.4,1.3c-0.2,0.4-0.4,0.8-0.6,1.2      c-0.3,0.4-0.5,0.8-0.9,1.1c-0.3,0.3-0.7,0.6-1.1,0.9c-0.4,0.3-0.8,0.5-1.2,0.6c-0.4,0.2-0.9,0.3-1.3,0.4      c-0.5,0.1-0.9,0.1-1.4,0.1s-0.9,0-1.4-0.1c-0.4-0.1-0.9-0.2-1.3-0.4c-0.4-0.2-0.8-0.4-1.2-0.6c-0.4-0.3-0.7-0.5-1.1-0.9      s-0.6-0.7-0.9-1.1c-0.3-0.4-0.5-0.8-0.6-1.2c-0.2-0.4-0.3-0.9-0.4-1.3c-0.1-0.5-0.1-0.9-0.1-1.4c0-0.5,0-0.9,0.1-1.4      c0.1-0.4,0.2-0.9,0.4-1.3c0.2-0.4,0.4-0.8,0.6-1.2c0.3-0.4,0.5-0.7,0.9-1.1c0.3-0.3,0.7-0.6,1.1-0.9c0.4-0.3,0.8-0.5,1.2-0.7      c0.4-0.2,0.9-0.3,1.3-0.4c0.9-0.2,1.8-0.2,2.7,0c0.4,0.1,0.9,0.2,1.3,0.4C183.1,403,183.5,403.2,183.9,403.5z"/></g></g><polygon class="st0" points="329.6,139.7 345.9,139.7 417.6,139.7 417.6,35.8 297.4,35.8 297.4,139.7 310.1,139.7   "/></g></g></svg>