<?xml version="1.0" ?><svg id="Layer_1" style="enable-background:new 0 0 512 512;" version="1.1" viewBox="0 0 512 512" xml:space="preserve" xmlns="http://www.w3.org/2000/svg" xmlns:xlink="http://www.w3.org/1999/xlink"><style type="text/css">
	.st0{fill:#1B3954;}
	.st1{fill:#16ADE1;}
</style><g><g><path class="st0" d="M194.7,320.4v-0.5c-0.1-0.1-0.5-0.6-0.6-0.8c-0.3-0.4-0.7-0.9-1.1-1.4c0,0-0.1-0.1-0.1-0.1    c-0.4-0.6-0.8-1.2-1.2-1.7c-0.1-0.2-0.8-1.2-0.8-1.2l-0.1-0.1c-0.1-0.2-0.5-0.8-0.5-0.8l-2.6-1.8l-0.4-4.3    c-0.1-0.2-0.3-0.7-0.3-0.7c-0.2-0.6-0.5-1.2-0.7-1.8c-0.2-0.7-0.5-1.3-0.7-2L84.3,404.8l34.3,34.3l101.7-101.7    c-8-2.4-15.4-6.8-21.5-12.9L194.7,320.4z"/><g><path class="st1" d="M69.9,410.2c-6.4-6.4-16.7-6.4-23,0c-6.4,6.4-6.4,16.7,0,23l43.3,43.3c6.4,6.4,16.7,6.4,23,0     c6.4-6.4,6.4-16.7,0-23L69.9,410.2z"/></g><g><g><path class="st1" d="M321.3,298.3c4.9-2.9,9.6-6.5,13.8-10.8L441.7,181l-30.9-30.9L304.2,256.7c-0.9,0.9-1.9,1.8-3,2.6      c-2.9,2.1-6.1,3.6-9.4,4.4c-8.7,2.2-18.4-0.2-25.2-7c-10.4-10.4-10.4-27.2,0-37.6l106.6-106.6L363,102.2l-16,16      c-1.4,1.4-3.2,2.1-4.9,2.1c-1.8,0-3.6-0.7-5-2.1c-2.7-2.7-2.7-7.2,0-9.9l16-16l-10.7-10.7L256,168l-20.2,20.2      c-3.7,3.7-6.8,7.6-9.5,11.8c-10.2,15.9-13.3,35.1-9.4,53l-8.2,8.2c-8.2,8.2-11.8,19.2-10.9,29.9c0.1,0.6,0.1,1.3,0.2,1.9      c0,0.4,0.1,0.7,0.2,1.1c0,0.2,0.1,0.4,0.1,0.6c0,0.2,0.1,0.5,0.1,0.7c0,0.1,0,0.1,0,0.2c0,0.2,0.1,0.4,0.1,0.6c0,0,0,0,0,0      c0.1,0.4,0.2,0.9,0.3,1.3c0.1,0.4,0.2,0.8,0.3,1.1c0.2,0.6,0.3,1.1,0.5,1.7c0.2,0.5,0.4,1,0.5,1.5c0.1,0.3,0.2,0.5,0.3,0.7      c0.1,0.3,0.2,0.5,0.3,0.7c0.1,0.3,0.2,0.5,0.4,0.8c0,0,0,0,0,0c0.2,0.4,0.3,0.7,0.5,1.1c0.3,0.6,0.6,1.1,0.9,1.6      c0.2,0.3,0.4,0.6,0.5,0.9c0,0,0,0.1,0,0.1c0.1,0.2,0.2,0.4,0.4,0.6c0.2,0.4,0.4,0.7,0.7,1c0.1,0.1,0.2,0.3,0.3,0.4      c0.2,0.3,0.5,0.6,0.7,1c0.1,0.1,0.2,0.3,0.3,0.4c0.2,0.2,0.3,0.4,0.5,0.7c0.2,0.2,0.3,0.4,0.5,0.6c0.3,0.3,0.6,0.7,0.9,1      c0.4,0.4,0.8,0.8,1.2,1.3v0c6.5,6.5,14.9,10.2,23.5,10.9c8.2,0.7,16.6-1.3,23.8-6c2.2-1.4,4.2-3,6.1-4.9l8.2-8.2l0,0      c13.5,3,27.8,1.9,40.8-3.1C314.6,301.9,318,300.3,321.3,298.3z M318.6,126.8c0.1-0.4,0.2-0.9,0.4-1.3c0.2-0.4,0.4-0.8,0.6-1.2      c0.3-0.4,0.5-0.7,0.9-1.1c0.3-0.3,0.7-0.6,1.1-0.9c0.4-0.3,0.8-0.5,1.2-0.7c0.4-0.2,0.9-0.3,1.3-0.4c0.9-0.2,1.8-0.2,2.7,0      c0.4,0.1,0.9,0.2,1.3,0.4c0.4,0.2,0.8,0.4,1.2,0.7c0.4,0.3,0.7,0.5,1.1,0.9c0.3,0.3,0.6,0.7,0.9,1.1c0.3,0.4,0.5,0.8,0.6,1.2      c0.2,0.4,0.3,0.9,0.4,1.3c0.1,0.5,0.1,0.9,0.1,1.4c0,0.4,0,0.9-0.1,1.4c-0.1,0.4-0.2,0.9-0.4,1.3c-0.2,0.4-0.4,0.8-0.6,1.2      c-0.3,0.4-0.5,0.7-0.9,1.1c-0.3,0.3-0.7,0.6-1.1,0.9c-0.4,0.3-0.8,0.5-1.2,0.6c-0.4,0.2-0.9,0.3-1.3,0.4      c-0.5,0.1-0.9,0.1-1.4,0.1s-0.9-0.1-1.4-0.1c-0.4-0.1-0.9-0.2-1.3-0.4c-0.4-0.2-0.8-0.4-1.2-0.6c-0.4-0.3-0.7-0.6-1.1-0.9      c-0.3-0.3-0.6-0.7-0.9-1.1c-0.3-0.4-0.5-0.8-0.6-1.2c-0.2-0.4-0.3-0.9-0.4-1.3c-0.1-0.5-0.1-0.9-0.1-1.4      C318.5,127.7,318.5,127.3,318.6,126.8z"/></g></g><path class="st0" d="M188.5,243.5c-9.5,10-15.5,22.7-17.2,36.1l-1.2,1.2L63.2,173.9L94.1,143l94.2,94.2    C188.3,239.3,188.3,241.4,188.5,243.5z"/><rect class="st0" height="33.2" transform="matrix(0.7071 -0.7071 0.7071 0.7071 -49.9287 104.4608)" width="198.1" x="2.1" y="95.9"/><path class="st0" d="M236.9,149l-20.2,20.2c-3.6,3.6-6.9,7.4-9.8,11.5l-75.2-75.2l30.9-30.9L236.9,149z"/><path class="st0" d="M340.8,317.8c-1.9,1.3-3.8,2.5-5.8,3.7c-4.5,2.7-9.4,5-14.3,6.9c-10,3.9-20.6,6.1-31.5,6.5l104.1,104.1    l34.3-34.3L340.8,317.8z"/><g><path class="st1" d="M453.6,405.4c-4.2,0-8.3,1.6-11.5,4.8l-4.5,4.5L403.3,449l-4.5,4.5c-6.4,6.4-6.4,16.7,0,23     c6.4,6.4,16.7,6.4,23,0l43.3-43.3c6.4-6.4,6.4-16.7,0-23C462,407,457.8,405.4,453.6,405.4z"/></g><polygon class="st0" points="360.1,85.3 370,95.2 380.3,105.5 448.8,173.9 469.2,194.3 492.6,170.8 352.5,30.7 329.1,54.2     349.5,74.6   "/></g></g></svg>