<?xml version="1.0" ?><svg id="Layer_1" style="enable-background:new 0 0 512 512;" version="1.1" viewBox="0 0 512 512" xml:space="preserve" xmlns="http://www.w3.org/2000/svg" xmlns:xlink="http://www.w3.org/1999/xlink"><style type="text/css">
	.st0{fill:#1B3954;}
	.st1{fill:#16ADE1;}
</style><g><g><path class="st0" d="M167,77c-40.3,0-73,32.7-73,73c0,3.8,0.3,7.5,0.8,11.2c-1.5-0.1-3-0.2-4.5-0.2C52.6,161,22,191.6,22,229.3    c0,25.6,14.1,47.8,34.9,59.6C48,299.5,42.7,313.1,42.7,328c0,29.5,20.9,54.1,48.7,59.8c5.2,26.9,28.8,47.2,57.3,47.2    c2.2,0,4.4-0.1,6.6-0.4l0.2,0.4h44.3v-52c0-3.9,3.1-7,7-7c3.9,0,7,3.1,7,7v52H240V150C240,109.7,207.3,77,167,77z M52,229.3    c0-21.1,17.2-38.3,38.3-38.3c3.9,0,7,3.1,7,7s-3.1,7-7,7C76.9,205,66,215.9,66,229.3c0,8.8,4.8,16.9,12.4,21.2    c3.4,1.9,4.6,6.2,2.7,9.5c-1.3,2.3-3.7,3.6-6.1,3.6c-1.2,0-2.3-0.3-3.4-0.9C59.5,256,52,243.1,52,229.3z M105.7,352.9    c-0.7,3.3-3.6,5.6-6.8,5.6c-0.5,0-0.9,0-1.4-0.1c-14.3-2.9-24.7-15.7-24.7-30.4c0-9.3,3.9-15.9,7.2-19.9c2.5-3,6.9-3.4,9.9-0.9    c3,2.5,3.4,6.9,0.9,9.9c-1.8,2.2-3.9,5.8-3.9,10.9c0,8.1,5.7,15.1,13.5,16.7C104,345.4,106.4,349.1,105.7,352.9z M151.9,404.8    c-1.1,0.1-2.2,0.2-3.2,0.2c-13.6,0-25.3-9.6-27.8-22.9c-0.7-3.8,1.8-7.5,5.5-8.2c3.8-0.7,7.5,1.8,8.2,5.5    c1.3,6.7,7.2,11.6,14.1,11.6c0.5,0,1.1,0,1.7-0.1c3.8-0.4,7.3,2.3,7.7,6.2C158.5,400.9,155.7,404.4,151.9,404.8z M167,121    c-16,0-29,13-29,29c0,3.9-3.1,7-7,7s-7-3.1-7-7c0-23.7,19.3-43,43-43c3.9,0,7,3.1,7,7S170.9,121,167,121z M194,316.7    c0,3.9-3.1,7-7,7s-7-3.1-7-7V243c0-3.9,3.1-7,7-7s7,3.1,7,7V316.7z M211.6,356.5c-0.3,0.3-0.7,0.6-1.1,0.9    c-0.4,0.3-0.8,0.5-1.2,0.7c-0.4,0.2-0.9,0.3-1.3,0.4s-0.9,0.1-1.4,0.1c-0.5,0-0.9,0-1.4-0.1c-0.5-0.1-0.9-0.2-1.3-0.4    c-0.4-0.2-0.8-0.4-1.2-0.7c-0.4-0.3-0.7-0.5-1.1-0.9c-0.3-0.3-0.6-0.7-0.9-1.1c-0.3-0.4-0.5-0.8-0.7-1.2c-0.2-0.4-0.3-0.9-0.4-1.3    c-0.1-0.5-0.1-0.9-0.1-1.4c0-0.4,0-0.9,0.1-1.4c0.1-0.4,0.2-0.9,0.4-1.3c0.2-0.4,0.4-0.8,0.7-1.2c0.3-0.4,0.5-0.7,0.9-1.1    c0.3-0.3,0.7-0.6,1.1-0.9c0.4-0.3,0.8-0.5,1.2-0.6c0.4-0.2,0.9-0.3,1.3-0.4c0.9-0.2,1.8-0.2,2.7,0c0.4,0.1,0.9,0.2,1.3,0.4    c0.4,0.2,0.8,0.4,1.2,0.6c0.4,0.3,0.7,0.6,1.1,0.9c0.3,0.3,0.6,0.7,0.9,1.1c0.3,0.4,0.5,0.8,0.6,1.2c0.2,0.4,0.3,0.9,0.4,1.3    c0.1,0.5,0.1,0.9,0.1,1.4C213.7,353.4,212.9,355.2,211.6,356.5z"/><g><g><path class="st1" d="M490,229.3c0-37.7-30.6-68.3-68.3-68.3c-1.5,0-3,0.1-4.5,0.2c0.6-3.6,0.9-7.4,0.9-11.2      c0-40.3-32.7-73-73-73s-73,32.7-73,73v285h84.6l0.2-0.4c2.1,0.2,4.3,0.4,6.6,0.4c28.4,0,52.1-20.3,57.3-47.2      c27.8-5.7,48.7-30.3,48.7-59.8c0-14.9-5.3-28.5-14.2-39.1C475.9,277.2,490,254.9,490,229.3z M332,316.7c0,3.9-3.1,7-7,7      s-7-3.1-7-7V243c0-3.9,3.1-7,7-7s7,3.1,7,7V316.7z M338,114c0-3.9,3.1-7,7-7c23.7,0,43,19.3,43,43c0,3.9-3.1,7-7,7s-7-3.1-7-7      c0-16-13-29-29-29C341.1,121,338,117.9,338,114z M391.1,382.1c-2.6,13.3-14.3,22.9-27.8,22.9c-1,0-2.1-0.1-3.2-0.2      c-3.8-0.4-6.6-3.9-6.2-7.7c0.4-3.8,3.9-6.6,7.7-6.2c0.6,0.1,1.2,0.1,1.7,0.1c6.9,0,12.8-4.9,14.1-11.6c0.7-3.8,4.4-6.3,8.2-5.5      C389.4,374.6,391.9,378.3,391.1,382.1z M414.6,358.4c-0.5,0.1-0.9,0.1-1.4,0.1c-3.3,0-6.2-2.3-6.8-5.6c-0.8-3.8,1.7-7.5,5.5-8.3      c7.8-1.6,13.5-8.6,13.5-16.7c0-5.1-2.1-8.7-3.9-10.9c-2.5-3-2.1-7.4,0.9-9.9c3-2.5,7.4-2.1,9.9,0.9c3.3,3.9,7.2,10.6,7.2,19.9      C439.3,342.7,428.9,355.4,414.6,358.4z M440.4,262.8c-1.1,0.6-2.3,0.9-3.4,0.9c-2.4,0-4.8-1.3-6.1-3.6c-1.9-3.4-0.7-7.6,2.7-9.5      c7.7-4.3,12.4-12.5,12.4-21.2c0-13.4-10.9-24.3-24.3-24.3c-3.9,0-7-3.1-7-7s3.1-7,7-7c21.1,0,38.3,17.2,38.3,38.3      C460,243.1,452.5,256,440.4,262.8z"/></g></g></g></g></svg>