<?xml version="1.0" ?><svg id="Layer_1" style="enable-background:new 0 0 512 512;" version="1.1" viewBox="0 0 512 512" xml:space="preserve" xmlns="http://www.w3.org/2000/svg" xmlns:xlink="http://www.w3.org/1999/xlink"><style type="text/css">
	.st0{fill:#1B3954;}
	.st1{fill:#16ADE1;}
</style><g><g><path class="st0" d="M193.7,64.1h-13.1c-13.7,0-24.9,11.1-24.9,24.9v25.7h38V64.1z M185.1,90.8c-0.1,0.4-0.2,0.9-0.4,1.3    c-0.2,0.4-0.4,0.8-0.6,1.2c-0.3,0.4-0.5,0.7-0.9,1.1c-1.3,1.3-3.1,2.1-5,2.1c-0.5,0-0.9,0-1.4-0.1c-0.4-0.1-0.9-0.2-1.3-0.4    c-0.4-0.2-0.8-0.4-1.2-0.7s-0.7-0.5-1.1-0.9c-0.3-0.3-0.6-0.7-0.9-1.1c-0.3-0.4-0.5-0.8-0.6-1.2c-0.2-0.4-0.3-0.9-0.4-1.3    c-0.1-0.4-0.1-0.9-0.1-1.4c0-0.5,0-0.9,0.1-1.4c0.1-0.4,0.2-0.9,0.4-1.3c0.2-0.4,0.4-0.8,0.6-1.2c0.3-0.4,0.5-0.8,0.9-1.1    c1.6-1.6,4-2.4,6.3-1.9c0.4,0.1,0.9,0.2,1.3,0.4c0.4,0.2,0.8,0.4,1.2,0.6c0.4,0.3,0.7,0.5,1.1,0.9c0.3,0.3,0.6,0.7,0.9,1.1    c0.3,0.4,0.5,0.8,0.6,1.2c0.2,0.4,0.3,0.9,0.4,1.3c0.1,0.5,0.1,0.9,0.1,1.4C185.3,89.8,185.2,90.3,185.1,90.8z"/><g><g><path class="st1" d="M356.3,89c0-13.7-11.1-24.9-24.9-24.9H207.7v50.5h148.7V89z M270.1,96.4h-28.2c-3.9,0-7-3.1-7-7      c0-3.9,3.1-7,7-7h28.2c3.9,0,7,3.1,7,7C277.1,93.3,274,96.4,270.1,96.4z"/></g></g><path class="st0" d="M418.1,189c-3.6,1.3-5.6,5.3-4.3,8.9c6.5,18.6,9.8,38.1,9.8,58s-3.3,39.5-9.8,58c-1.3,3.6,0.6,7.6,4.3,8.9    c0.8,0.3,1.6,0.4,2.3,0.4c2.9,0,5.6-1.8,6.6-4.7c7.1-20.1,10.6-41.2,10.6-62.7s-3.6-42.6-10.6-62.7    C425.7,189.7,421.7,187.7,418.1,189z"/><path class="st0" d="M447.7,178.6c-3.6,1.3-5.6,5.3-4.3,8.9c7.7,21.9,11.6,45,11.6,68.5s-3.9,46.5-11.6,68.5    c-1.3,3.6,0.6,7.6,4.3,8.9c0.8,0.3,1.5,0.4,2.3,0.4c2.9,0,5.6-1.8,6.6-4.7c8.2-23.4,12.4-48,12.4-73.1s-4.2-49.7-12.4-73.1    C455.4,179.3,451.4,177.3,447.7,178.6z"/><path class="st0" d="M388.4,199.4c-3.6,1.3-5.6,5.3-4.3,8.9c5.4,15.3,8.1,31.3,8.1,47.7s-2.7,32.4-8.1,47.7    c-1.3,3.6,0.6,7.6,4.3,8.9c0.8,0.3,1.5,0.4,2.3,0.4c2.9,0,5.6-1.8,6.6-4.7c5.9-16.8,8.9-34.3,8.9-52.3s-3-35.5-8.9-52.3    C396,200.1,392.1,198.1,388.4,199.4z"/><path class="st0" d="M486.3,172.5c-1.3-3.6-5.3-5.6-8.9-4.3c-3.6,1.3-5.6,5.3-4.3,8.9c8.9,25.3,13.4,51.8,13.4,78.9    s-4.5,53.6-13.4,78.9c-1.3,3.6,0.6,7.6,4.3,8.9c0.8,0.3,1.5,0.4,2.3,0.4c2.9,0,5.6-1.8,6.6-4.7c9.4-26.8,14.1-54.9,14.1-83.5    S495.7,199.3,486.3,172.5z"/><path class="st0" d="M93.9,189c-3.6-1.3-7.6,0.6-8.9,4.3C78,213.4,74.4,234.5,74.4,256S78,298.6,85,318.7c1,2.9,3.7,4.7,6.6,4.7    c0.8,0,1.6-0.1,2.3-0.4c3.6-1.3,5.6-5.3,4.3-8.9c-6.5-18.6-9.8-38.1-9.8-58s3.3-39.5,9.8-58C99.5,194.3,97.6,190.3,93.9,189z"/><path class="st0" d="M64.3,178.6c-3.6-1.3-7.6,0.6-8.9,4.3c-8.2,23.4-12.4,48-12.4,73.1s4.2,49.7,12.4,73.1c1,2.9,3.7,4.7,6.6,4.7    c0.8,0,1.6-0.1,2.3-0.4c3.6-1.3,5.6-5.3,4.3-8.9c-7.7-21.9-11.6-45-11.6-68.5s3.9-46.5,11.6-68.5    C69.8,183.9,67.9,179.9,64.3,178.6z"/><path class="st0" d="M123.6,199.4c-3.6-1.3-7.6,0.6-8.9,4.3c-5.9,16.8-8.9,34.3-8.9,52.3s3,35.5,8.9,52.3c1,2.9,3.7,4.7,6.6,4.7    c0.8,0,1.6-0.1,2.3-0.4c3.6-1.3,5.6-5.3,4.3-8.9c-5.4-15.3-8.1-31.3-8.1-47.7s2.7-32.4,8.1-47.7    C129.2,204.7,127.2,200.7,123.6,199.4z"/><path class="st0" d="M34.6,168.2c-3.6-1.3-7.6,0.6-8.9,4.3c-9.4,26.8-14.1,54.9-14.1,83.5s4.8,56.7,14.1,83.5    c1,2.9,3.7,4.7,6.6,4.7c0.8,0,1.5-0.1,2.3-0.4c3.6-1.3,5.6-5.3,4.3-8.9C30,309.6,25.5,283.1,25.5,256s4.5-53.6,13.4-78.9    C40.2,173.5,38.2,169.5,34.6,168.2z"/><path class="st0" d="M356.3,128.7H155.7V353h49.2c3.9,0,7,3.1,7,7s-3.1,7-7,7h-49.2v16.3h200.7V128.7z M233.7,361.4    c-0.1,0.4-0.2,0.9-0.4,1.3c-0.2,0.4-0.4,0.8-0.6,1.2c-0.3,0.4-0.5,0.7-0.9,1.1c-1.3,1.3-3.1,2.1-5,2.1c-0.5,0-0.9-0.1-1.4-0.1    c-0.4-0.1-0.9-0.2-1.3-0.4c-0.4-0.2-0.8-0.4-1.2-0.6c-0.4-0.3-0.7-0.6-1.1-0.9c-0.3-0.3-0.6-0.7-0.9-1.1c-0.3-0.4-0.5-0.8-0.6-1.2    c-0.2-0.4-0.3-0.9-0.4-1.3c-0.1-0.5-0.1-0.9-0.1-1.4c0-0.4,0-0.9,0.1-1.4c0.1-0.4,0.2-0.9,0.4-1.3c0.2-0.4,0.4-0.8,0.6-1.2    c0.3-0.4,0.5-0.7,0.9-1.1c0.3-0.3,0.7-0.6,1.1-0.9c0.4-0.3,0.8-0.5,1.2-0.6c0.4-0.2,0.9-0.3,1.3-0.4c0.9-0.2,1.8-0.2,2.7,0    c0.5,0.1,0.9,0.2,1.3,0.4c0.4,0.2,0.8,0.4,1.2,0.6c0.4,0.3,0.7,0.6,1.1,0.9c0.3,0.3,0.6,0.7,0.9,1.1c0.3,0.4,0.5,0.8,0.6,1.2    c0.2,0.4,0.3,0.9,0.4,1.3c0.1,0.4,0.1,0.9,0.1,1.4S233.8,360.9,233.7,361.4z M321.7,284.2h-37.4v37.4h-56.5v-37.4h-37.4v-56.5    h37.4v-37.4h56.5v37.4h37.4V284.2z"/><g><g><path class="st1" d="M155.7,423c0,13.7,11.1,24.9,24.9,24.9h150.9c13.7,0,24.9-11.1,24.9-24.9v-25.7H155.7V423z M251,417.7      c1.6-1.6,4-2.4,6.3-1.9c0.4,0.1,0.9,0.2,1.3,0.4c0.4,0.2,0.8,0.4,1.2,0.7c0.4,0.3,0.7,0.5,1.1,0.9c1.3,1.3,2.1,3.1,2.1,4.9      c0,1.8-0.8,3.6-2.1,5c-1.3,1.3-3.1,2-4.9,2c-0.5,0-0.9,0-1.4-0.1c-0.4-0.1-0.9-0.2-1.3-0.4c-0.4-0.2-0.8-0.4-1.2-0.6      c-0.4-0.3-0.7-0.5-1.1-0.9c-1.3-1.3-2-3.1-2-5C249,420.8,249.8,419,251,417.7z"/></g></g></g></g></svg>