<?xml version="1.0" ?><svg id="Layer_1" style="enable-background:new 0 0 512 512;" version="1.1" viewBox="0 0 512 512" xml:space="preserve" xmlns="http://www.w3.org/2000/svg" xmlns:xlink="http://www.w3.org/1999/xlink"><style type="text/css">
	.st0{fill:#1B3954;}
	.st1{fill:#16ADE1;}
</style><path class="st0" d="M311,46.8c-20.4,0-39.3,7.7-55,20.8c-15.7-13.1-34.6-20.8-55-20.8c-53.9,0-97.6,53.4-97.6,119.2  c0,20.1,4.1,39,11.3,55.6c15.4,35.6,25.6,73.3,31.2,111.7c0.3-0.1,0.6-0.1,1-0.1h28.9c3.9,0,7,3.1,7,7c0,3.9-3.1,7-7,7h-28  l12.4,103.3c2.1,17,25.3,20.2,31.8,4.4l46.5-111.6c5.6-13.5,24.8-13.5,30.4,0l46.5,111.6c6.6,15.8,29.8,12.6,31.8-4.4l10.8-89.9  c5.7-47.4,18.8-93.5,38.4-137c7.7-17.1,12.1-36.7,12.1-57.6C408.6,100.2,364.9,46.8,311,46.8z M166.2,114.5  c-10,13.8-15.8,32.6-15.8,51.6c0,3.9-3.1,7-7,7c-3.9,0-7-3.1-7-7c0-22.2,6.5-43.5,18.4-59.8c12.2-16.8,29-26.4,46.1-26.4  c3.9,0,7,3.1,7,7c0,3.9-3.1,7-7,7C188.2,93.8,175.8,101.2,166.2,114.5z M203.9,341.6c-0.1,0.4-0.2,0.9-0.4,1.3  c-0.2,0.4-0.4,0.8-0.6,1.2c-0.3,0.4-0.6,0.7-0.9,1.1c-0.3,0.3-0.7,0.6-1.1,0.9c-0.4,0.3-0.8,0.5-1.2,0.7c-0.4,0.2-0.9,0.3-1.3,0.4  c-0.5,0.1-0.9,0.1-1.4,0.1s-0.9-0.1-1.4-0.1c-0.4-0.1-0.9-0.2-1.3-0.4c-0.4-0.2-0.8-0.4-1.2-0.7c-0.4-0.3-0.7-0.5-1.1-0.9  c-0.3-0.3-0.6-0.7-0.9-1.1c-0.3-0.4-0.5-0.8-0.6-1.2c-0.2-0.4-0.3-0.9-0.4-1.3c-0.1-0.5-0.1-0.9-0.1-1.4c0-0.5,0.1-0.9,0.1-1.4  c0.1-0.4,0.2-0.9,0.4-1.3c0.2-0.4,0.4-0.8,0.6-1.2c0.3-0.4,0.6-0.7,0.9-1.1c0.3-0.3,0.7-0.6,1.1-0.9c0.4-0.3,0.8-0.5,1.2-0.6  c0.4-0.2,0.9-0.3,1.3-0.4c0.9-0.2,1.8-0.2,2.7,0c0.4,0.1,0.9,0.2,1.3,0.4c0.4,0.2,0.8,0.4,1.2,0.6c0.4,0.3,0.7,0.6,1.1,0.9  c0.3,0.3,0.6,0.7,0.9,1.1c0.3,0.4,0.5,0.8,0.6,1.2c0.2,0.4,0.3,0.9,0.4,1.3c0.1,0.5,0.1,0.9,0.1,1.4  C204,340.7,203.9,341.2,203.9,341.6z M327,247h-40.5v40.5h-61V247H185v-61h40.5v-40.5h61V186H327V247z"/></svg>