<?xml version="1.0" ?><svg id="Layer_1" style="enable-background:new 0 0 512 512;" version="1.1" viewBox="0 0 512 512" xml:space="preserve" xmlns="http://www.w3.org/2000/svg" xmlns:xlink="http://www.w3.org/1999/xlink"><style type="text/css">
	.st0{fill:#1B3954;}
	.st1{fill:#16ADE1;}
</style><g><g><path class="st0" d="M400.4,195.1L287.9,82.7c-2.8-2.8-7.4-2.8-10.3,0l-26.9,26.9c-2.8,2.8-2.8,7.4,0,10.2l19.8,19.8l-35.1,35.1    l26,26c2.7,2.7,2.7,7.2,0,9.9c-1.4,1.4-3.2,2-5,2s-3.6-0.7-5-2l-26-26l-23.3,23.3l26,26c2.7,2.7,2.7,7.2,0,9.9    c-1.4,1.4-3.2,2.1-5,2.1s-3.6-0.7-5-2.1l-26-26l-23.4,23.4l26,26c2.7,2.7,2.7,7.2,0,9.9c-1.4,1.4-3.2,2.1-5,2.1    c-1.8,0-3.6-0.7-5-2.1l-26-26l-25.6,25.6c-4.1,4.2-6,10.1-5,15.8l1.9,10.2c1,5.8-0.8,11.7-5,15.9L99,345.1    c-10.9,10.9-10.7,28.8,0.6,39.5c10.9,10.3,28.2,9.6,38.8-1l25.9-25.9c4.1-4.2,10.1-6,15.9-5l10.2,1.8c5.8,1.1,11.7-0.8,15.8-4.9    l137.1-137.1l19.8,19.8c2.8,2.8,7.4,2.8,10.2,0l26.9-26.9C403.2,202.6,403.2,198,400.4,195.1z M209.6,291.9    c-0.3,0.3-0.7,0.6-1.1,0.9c-0.4,0.3-0.8,0.5-1.2,0.6c-0.4,0.2-0.9,0.3-1.3,0.4c-0.4,0.1-0.9,0.1-1.4,0.1c-1.8,0-3.6-0.7-5-2    c-0.3-0.3-0.6-0.7-0.9-1.1c-0.3-0.4-0.5-0.8-0.6-1.2c-0.2-0.4-0.3-0.9-0.4-1.3c-0.1-0.5-0.1-0.9-0.1-1.4c0-1.8,0.8-3.7,2-5    c1.6-1.6,4-2.4,6.3-1.9c0.4,0.1,0.9,0.2,1.3,0.4c0.4,0.2,0.8,0.4,1.2,0.6c0.4,0.3,0.8,0.5,1.1,0.9c1.3,1.3,2.1,3.1,2.1,5    C211.6,288.8,210.9,290.6,209.6,291.9z M244.8,255.1c-0.1,0.4-0.2,0.9-0.4,1.3c-0.2,0.4-0.4,0.8-0.6,1.2c-0.3,0.4-0.5,0.7-0.9,1.1    c-1.3,1.3-3.1,2-4.9,2c-1.8,0-3.6-0.8-5-2c-0.3-0.3-0.6-0.7-0.9-1.1c-0.3-0.4-0.5-0.8-0.6-1.2c-0.2-0.4-0.3-0.9-0.4-1.3    c-0.1-0.5-0.1-0.9-0.1-1.4c0-1.8,0.8-3.7,2-5c1.3-1.3,3.1-2,5-2c1.9,0,3.6,0.8,4.9,2c1.3,1.3,2.1,3.1,2.1,5    C244.9,254.1,244.9,254.6,244.8,255.1z M278,221.8c-0.1,0.4-0.2,0.9-0.4,1.3c-0.2,0.4-0.4,0.8-0.6,1.2c-0.3,0.4-0.5,0.8-0.9,1.1    c-0.3,0.3-0.7,0.6-1.1,0.9c-0.4,0.3-0.8,0.5-1.2,0.6c-0.4,0.2-0.9,0.3-1.3,0.4c-0.4,0.1-0.9,0.1-1.4,0.1c-0.5,0-0.9,0-1.4-0.1    c-0.5-0.1-0.9-0.2-1.3-0.4c-0.4-0.2-0.8-0.4-1.2-0.6c-0.4-0.3-0.7-0.6-1.1-0.9c-0.3-0.3-0.6-0.7-0.9-1.1c-0.3-0.4-0.5-0.8-0.6-1.2    c-0.2-0.4-0.3-0.9-0.4-1.3c-0.1-0.5-0.1-0.9-0.1-1.4c0-1.9,0.8-3.7,2-5c0.3-0.3,0.7-0.6,1.1-0.9c0.4-0.3,0.8-0.5,1.2-0.6    c0.4-0.2,0.9-0.3,1.3-0.4c0.9-0.2,1.8-0.2,2.7,0c0.5,0.1,0.9,0.2,1.3,0.4c0.4,0.2,0.8,0.4,1.2,0.6c0.4,0.3,0.7,0.5,1.1,0.9    c0.3,0.3,0.6,0.7,0.9,1.1s0.5,0.8,0.6,1.2c0.2,0.4,0.3,0.9,0.4,1.3c0.1,0.4,0.1,0.9,0.1,1.4C278.1,220.9,278.1,221.3,278,221.8z"/><g><g><path class="st1" d="M443.4,39.6c-21.6-21.6-56.6-21.6-78.2,0c-10.6,10.6-16,24.5-16.2,38.5l-23,23L382,157l23-23      c13.9-0.2,27.8-5.5,38.5-16.2C465,96.2,465,61.2,443.4,39.6z M427.1,65.9c-1.4,1.4-3.2,2-5,2s-3.6-0.7-4.9-2      c-7.1-7.1-18.6-7.1-25.7,0c-2.7,2.7-7.2,2.7-9.9,0c-2.7-2.7-2.7-7.2,0-9.9c12.5-12.5,33-12.5,45.5,0      C429.8,58.7,429.8,63.1,427.1,65.9z"/></g></g><g><path class="st1" d="M52.4,458.8c0,19.3,11.2,29.8,25,29.8s25-10.4,25-29.8c0-19.3-25-45-25-45S52.4,439.5,52.4,458.8z"/></g></g></g></svg>