<?xml version="1.0" ?><svg id="Layer_1" style="enable-background:new 0 0 512 512;" version="1.1" viewBox="0 0 512 512" xml:space="preserve" xmlns="http://www.w3.org/2000/svg" xmlns:xlink="http://www.w3.org/1999/xlink"><style type="text/css">
	.st0{fill:#1B3954;}
	.st1{fill:#16ADE1;}
</style><g><g><g><path class="st1" d="M106.6,104.5h139.6c2.7,0,4.9-2.8,4.9-6.2v-29c0-3.4-2.2-6.2-4.9-6.2H106.6c-2.7,0-4.9,2.8-4.9,6.2v29     C101.7,101.7,103.9,104.5,106.6,104.5z"/></g><path class="st0" d="M287.8,218.5c0-4-0.5-8-1.3-11.8c-0.6,0.2-1.3,0.3-2,0.3h-65.3c-3.9,0-7-3.1-7-7c0-3.9,3.1-7,7-7h62.2    c-4.9-9-12.4-16.6-21.8-21.5v0c-17.4-9.2-28.3-27.3-28.3-47v-5.9H121.5v5.9c0,19.7-10.9,37.8-28.3,47    c-17.4,9.2-28.3,27.3-28.3,47.1v7.1h223V218.5z M197.5,201.4c-0.1,0.5-0.2,0.9-0.4,1.3c-0.2,0.4-0.4,0.8-0.7,1.2    c-0.3,0.4-0.5,0.7-0.9,1.1c-1.3,1.3-3.1,2-4.9,2c-1.8,0-3.6-0.7-4.9-2c-0.3-0.3-0.6-0.7-0.9-1.1c-0.3-0.4-0.5-0.8-0.7-1.2    c-0.2-0.4-0.3-0.9-0.4-1.3c-0.1-0.4-0.1-0.9-0.1-1.4c0-0.5,0.1-0.9,0.1-1.4c0.1-0.5,0.2-0.9,0.4-1.3c0.2-0.4,0.4-0.8,0.7-1.2    c0.3-0.4,0.5-0.7,0.9-1.1c0.3-0.3,0.7-0.6,1.1-0.9c0.4-0.3,0.8-0.5,1.2-0.6c0.4-0.2,0.9-0.3,1.3-0.4c0.9-0.2,1.8-0.2,2.7,0    c0.4,0.1,0.9,0.2,1.3,0.4c0.4,0.2,0.8,0.4,1.2,0.6c0.4,0.3,0.7,0.6,1.1,0.9c0.3,0.3,0.6,0.7,0.9,1.1c0.3,0.4,0.5,0.8,0.7,1.2    c0.2,0.4,0.3,0.9,0.4,1.3c0.1,0.5,0.1,0.9,0.1,1.4C197.7,200.5,197.6,201,197.5,201.4z"/><path class="st0" d="M64.8,407.6c0,5.5,1.1,10.8,3.1,15.8c2,5,5.1,9.5,8.9,13.4c7.7,7.7,18.2,12.1,29.1,12.1h140.6    c5.5,0,10.8-1.1,15.8-3.1c4.9-2,9.5-5.1,13.4-8.9c7.7-7.7,12.1-18.2,12.1-29.1v-14.3h-223V407.6z"/><g><g><path class="st1" d="M64.8,379.3h223V239.7h-223V379.3z M128.7,288.5h26.6v-26.6h42v26.6H224v42h-26.6v26.6h-42v-26.6h-26.6      V288.5z"/></g></g><path class="st0" d="M387.4,316.5c-33,0-59.8,26.8-59.8,59.8s26.8,59.8,59.8,59.8c14,0,26.8-4.8,37-12.9c0,0-0.1,0-0.1-0.1    l-50.3-50.3c-2.7-2.7-2.7-7.2,0-9.9c2.7-2.7,7.2-2.7,9.9,0l50.3,50.3c0,0,0,0.1,0.1,0.1c8-10.2,12.9-23,12.9-37    C447.2,343.2,420.4,316.5,387.4,316.5z M370.4,359.2c-1.3,1.3-3.1,2-4.9,2c-0.5,0-0.9,0-1.4-0.1s-0.9-0.2-1.3-0.4    c-0.4-0.2-0.8-0.4-1.2-0.6c-0.4-0.3-0.7-0.5-1.1-0.9c-1.3-1.3-2-3.1-2-4.9c0-0.5,0-0.9,0.1-1.4s0.2-0.9,0.4-1.3    c0.2-0.4,0.4-0.8,0.6-1.2c0.3-0.4,0.5-0.7,0.9-1.1c0.3-0.3,0.7-0.6,1.1-0.9c0.4-0.3,0.8-0.5,1.2-0.6c0.4-0.2,0.9-0.3,1.3-0.4    c0.9-0.2,1.8-0.2,2.7,0c0.5,0.1,0.9,0.2,1.3,0.4c0.4,0.2,0.8,0.4,1.2,0.6c0.4,0.3,0.7,0.5,1.1,0.9c0.3,0.3,0.6,0.7,0.9,1.1    c0.3,0.4,0.5,0.8,0.6,1.2c0.2,0.4,0.3,0.9,0.4,1.3s0.1,0.9,0.1,1.4C372.4,356.1,371.7,357.9,370.4,359.2z"/></g></g></svg>