<?xml version="1.0" ?><svg id="Layer_1" style="enable-background:new 0 0 512 512;" version="1.1" viewBox="0 0 512 512" xml:space="preserve" xmlns="http://www.w3.org/2000/svg" xmlns:xlink="http://www.w3.org/1999/xlink"><style type="text/css">
	.st0{fill:#1B3954;}
	.st1{fill:#16ADE1;}
</style><g><g><path class="st0" d="M72.4,336H36.9c-5.3,0-9.5,4.3-9.5,9.5v24.6c0,5.3,4.3,9.5,9.5,9.5h20.5c-0.1-1.4-0.2-2.7-0.2-4.1    C57.2,360.8,62.8,346.7,72.4,336z"/><path class="st0" d="M344.1,336H161.2c9.6,10.8,15.1,24.8,15.1,39.6c0,1.4-0.1,2.7-0.1,4.1h152.9c-0.1-1.3-0.1-2.7-0.1-4.1    C328.9,360.8,334.5,346.7,344.1,336z"/><path class="st0" d="M432.9,336c9.6,10.8,15.1,24.8,15.1,39.6c0,1.3-0.1,2.7-0.2,4.1h28.5c4.6,0,8.4-3.7,8.4-8.4v-27    c0-4.6-3.7-8.4-8.4-8.4H432.9z"/><path class="st0" d="M139.2,336c-6.6-3.8-14.3-5.9-22.4-5.9c-8.2,0-15.8,2.1-22.4,5.9c-13.8,7.8-23.1,22.6-23.1,39.6    c0,1.4,0.1,2.7,0.2,4.1c2,23.3,21.6,41.5,45.4,41.5s43.3-18.2,45.3-41.5c0.1-1.3,0.2-2.7,0.2-4.1C162.3,358.6,153,343.8,139.2,336    z M134.1,379.7c-1.8,7.9-8.9,13.7-17.3,13.7c-8.4,0-15.5-5.9-17.3-13.7c-0.3-1.3-0.5-2.7-0.5-4.1c0-9.8,8-17.8,17.8-17.8    s17.8,8,17.8,17.8C134.5,377,134.4,378.4,134.1,379.7z"/><path class="st0" d="M410.9,336c-6.6-3.8-14.3-5.9-22.4-5.9c-8.1,0-15.8,2.1-22.4,5.9c-13.8,7.8-23.1,22.6-23.1,39.6    c0,1.4,0.1,2.7,0.2,4.1c2.1,23.3,21.6,41.5,45.4,41.5s43.3-18.2,45.4-41.5c0.1-1.3,0.2-2.7,0.2-4.1    C434,358.6,424.7,343.8,410.9,336z M405.8,379.7c-1.8,7.9-8.9,13.7-17.3,13.7s-15.5-5.9-17.3-13.7c-0.3-1.3-0.5-2.7-0.5-4.1    c0-9.8,8-17.8,17.8-17.8c9.8,0,17.8,8,17.8,17.8C406.3,377,406.1,378.4,405.8,379.7z"/><path class="st0" d="M176,90.9c-11.3,0-21.2,12.4-26.2,21.7h52.4C197.3,103.3,187.4,90.9,176,90.9z"/><path class="st0" d="M441.1,223h-30.9l-6.2-39.9c-1.5-9.8-9.9-16.9-19.8-16.9h-60.6V322h143.7v-15c-0.2,0-0.3,0-0.5,0    c-5.7,0-10.3-4.6-10.3-10.3c0-5.7,4.6-10.3,10.3-10.3c0.2,0,0.3,0,0.5,0v-37.1C467.3,234.7,455.6,223,441.1,223z M343,223v-29.8    h41.4l4.7,29.8H343z"/><g><g><path class="st1" d="M267.7,284.1h41.9V126.6H42.5V322h267.1v-23.8h-41.9c-3.9,0-7-3.1-7-7C260.7,287.3,263.8,284.1,267.7,284.1      z M203,292.6h-54v-34.3h-34.3v-54h34.3V170h54v34.3h34.3v54H203V292.6z M248.8,292.5c-0.1,0.5-0.2,0.9-0.4,1.3      c-0.2,0.4-0.4,0.8-0.6,1.2c-0.3,0.4-0.6,0.7-0.9,1.1c-0.3,0.3-0.7,0.6-1.1,0.9c-0.4,0.3-0.8,0.5-1.2,0.6      c-0.4,0.2-0.9,0.3-1.3,0.4c-0.5,0.1-0.9,0.1-1.4,0.1c-0.5,0-0.9-0.1-1.4-0.1c-0.5-0.1-0.9-0.2-1.3-0.4c-0.4-0.2-0.8-0.4-1.2-0.6      c-0.4-0.3-0.7-0.6-1.1-0.9c-0.3-0.3-0.6-0.7-0.9-1.1s-0.5-0.8-0.6-1.2c-0.2-0.4-0.3-0.9-0.4-1.3c-0.1-0.5-0.1-0.9-0.1-1.4      c0-1.9,0.7-3.7,2.1-5c0.3-0.3,0.7-0.6,1.1-0.9c0.4-0.3,0.8-0.5,1.2-0.7c0.4-0.2,0.9-0.3,1.3-0.4c0.9-0.2,1.8-0.2,2.7,0      c0.4,0.1,0.9,0.2,1.3,0.4c0.4,0.2,0.8,0.4,1.2,0.7c0.4,0.3,0.7,0.5,1.1,0.9c1.3,1.3,2.1,3.1,2.1,5      C248.9,291.6,248.9,292.1,248.8,292.5z"/></g></g></g></g></svg>