<?xml version="1.0" ?><svg id="Layer_1" style="enable-background:new 0 0 512 512;" version="1.1" viewBox="0 0 512 512" xml:space="preserve" xmlns="http://www.w3.org/2000/svg" xmlns:xlink="http://www.w3.org/1999/xlink"><style type="text/css">
	.st0{fill:#1B3954;}
	.st1{fill:#16ADE1;}
</style><g><g><path class="st0" d="M308.9,313.9l-3.4-4.6l-48.7-66.2V109.5h6.5c5.6,0,10.7-2.3,14.4-6c3.7-3.7,6-8.8,6-14.4    c0-11.2-9.1-20.3-20.3-20.3H156.6c-5.6,0-10.7,2.3-14.3,6c-3.7,3.7-6,8.8-6,14.4c0,11.2,9.1,20.3,20.3,20.3h6.5v133.6l-48.7,66.2    l-70.7,96.1c-11.5,15.6-0.3,37.7,19,37.7h294.5c3.5,0,6.8-0.7,9.7-2c13-5.8,18.8-22.9,9.4-35.7L308.9,313.9z M216.8,134.9    c0-3.9,3.1-7,7-7c3.9,0,7,3.1,7,7v97.4c0,3.9-3.1,7-7,7c-3.9,0-7-3.1-7-7V134.9z M218.9,258c1.6-1.6,4-2.4,6.3-1.9    c0.5,0.1,0.9,0.2,1.3,0.4c0.4,0.2,0.8,0.4,1.2,0.6c0.4,0.3,0.7,0.5,1.1,0.9c1.3,1.3,2,3.1,2,5c0,1.8-0.8,3.6-2,4.9    c-1.3,1.3-3.1,2.1-5,2.1c-1.8,0-3.6-0.7-5-2.1c-1.3-1.3-2-3.1-2-4.9C216.8,261.1,217.6,259.3,218.9,258z M95.5,402.8l68.8-93.5    h91.1l43.7,59.4l25.1,34.1H95.5z"/><g><path class="st1" d="M223.8,349.1h-6.9v-6.9c0-3.9-3.1-7-7-7s-7,3.1-7,7v6.9H196c-3.9,0-7,3.1-7,7s3.1,7,7,7h6.9v0h0v6.9     c0,3.9,3.1,7,7,7s7-3.1,7-7v-6.9h6.9c3.9,0,7-3.1,7-7S227.7,349.1,223.8,349.1z"/></g><g><g><path class="st1" d="M423.2,276.8V175.5h5.2c4.5,0,8.6-1.8,11.5-4.8c2.9-3,4.8-7,4.8-11.5c0-9-7.3-16.3-16.3-16.3h-85.5      c-4.5,0-8.6,1.8-11.5,4.8c-2.9,2.9-4.8,7-4.8,11.5c0,9,7.3,16.3,16.3,16.3h5.2v101.3c-8.8,4.2-16.8,9.9-23.8,16.7      c-2.6,2.5-5,5.2-7.2,8l70.4,95.6c6.8,9.2,9,20.8,6.1,31.8c-1.4,5.3-3.8,10-7.1,14.1c47.9-0.5,86.5-39.4,86.5-87.4      C473,320.9,452.7,290.9,423.2,276.8z M432.7,362.7c-3.9,0-7-3.1-7-7c0-15.4-9-29.6-22.9-36.3c-3.5-1.7-5-5.8-3.3-9.3      c1.7-3.5,5.8-5,9.3-3.3c18.7,8.9,30.8,28.1,30.8,48.9C439.7,359.6,436.6,362.7,432.7,362.7z"/></g></g></g></g></svg>