<?xml version="1.0" ?><svg id="Layer_1" style="enable-background:new 0 0 512 512;" version="1.1" viewBox="0 0 512 512" xml:space="preserve" xmlns="http://www.w3.org/2000/svg" xmlns:xlink="http://www.w3.org/1999/xlink"><style type="text/css">
	.st0{fill:#1B3954;}
	.st1{fill:#16ADE1;}
</style><g><g><g><path class="st1" d="M371.2,249.4c-4.7-5.1-10-9.6-15.7-13.5l-58,130.8l-31.9,71.9h21c0-1.9,0.4-3.9,1.2-5.7l79.3-178.2     C368,252.6,369.5,250.8,371.2,249.4z"/></g><g><circle class="st1" cx="247.2" cy="106.7" r="74.7"/></g><path class="st0" d="M261.1,352.8h27.3l54.3-122.5c0.2-0.4,0.4-0.8,0.6-1.2c-11.4-5.3-24.2-8.3-37.7-8.3h-99.3    c-49.3,0-89.3,40-89.3,89.3v134.1c0,9.9,4,18.9,10.5,25.4c6.5,6.5,15.5,10.5,25.4,10.5c11.8,0,22.3-5.7,28.9-14.6V320.5    c0-5.3,3.1-9.5,7-9.5c3.9,0,7,4.3,7,9.5v118.1h30.7c-9.4-9.1-15.3-21.8-15.3-35.9C211.1,375.1,233.5,352.8,261.1,352.8z"/><g><polygon class="st1" points="335,438.6 394.9,438.6 394.9,332.5 375.6,366.8    "/></g><g><path class="st1" d="M379.9,260.4l-47.3,106.3l-32,71.9H321c0-2.4,0.6-4.7,1.8-6.9l59.9-106.1c2.5-4.5,7.2-7.1,12.2-7.1V310     C394.9,291.7,389.4,274.6,379.9,260.4z"/></g><path class="st0" d="M261.1,366.8c-19.9,0-35.9,16.1-35.9,35.9c0,16.6,11.2,30.5,26.5,34.7c0.1-1.5,0.5-3,1.1-4.4l29.4-66.2H261.1    z"/></g></g></svg>