<?xml version="1.0" ?><svg id="Layer_1" style="enable-background:new 0 0 512 512;" version="1.1" viewBox="0 0 512 512" xml:space="preserve" xmlns="http://www.w3.org/2000/svg" xmlns:xlink="http://www.w3.org/1999/xlink"><style type="text/css">
	.st0{fill:#1B3954;}
	.st1{fill:#16ADE1;}
</style><g><g><path class="st0" d="M225.3,197.6l-24.2,35.8c-1.4,2-3.6,3.1-5.8,3.1c-1.4,0-2.7-0.4-3.9-1.2c-3.2-2.2-4-6.5-1.9-9.7l28.5-42.2    c1.1-1.7,2.9-2.7,4.8-3l-0.3-2l-18.1,10.2l1.8-19.6l-19.6,8.4l-25,40.6L88,337.3c-2.3-2.8-5.1-5.3-8.2-7.4    c-17.5-11.6-41.1-6.8-52.7,10.7c-11.6,17.5-6.8,41.1,10.7,52.7c12.7,8.4,28.6,8.2,40.8,0.7l5.6,3.7c-2.1,14.1,3.9,28.9,16.6,37.3    c17.5,11.6,41.1,6.8,52.7-10.7c11.6-17.5,6.8-41.1-10.7-52.7c-3.3-2.2-6.8-3.8-10.5-4.8L220.2,243l28-39.4l-21.2,5.5L225.3,197.6z     M188.4,248.5c-0.1,0.4-0.2,0.9-0.4,1.3c-0.2,0.4-0.4,0.8-0.6,1.2c-0.3,0.4-0.6,0.7-0.9,1.1c-0.3,0.3-0.7,0.6-1.1,0.9    c-0.4,0.3-0.8,0.5-1.2,0.6c-0.4,0.2-0.9,0.3-1.3,0.4c-0.4,0.1-0.9,0.1-1.4,0.1s-0.9,0-1.4-0.1c-0.4-0.1-0.9-0.2-1.3-0.4    c-0.4-0.2-0.8-0.4-1.2-0.6c-0.4-0.3-0.7-0.6-1.1-0.9c-0.3-0.3-0.6-0.7-0.9-1.1s-0.5-0.8-0.6-1.2c-0.2-0.4-0.3-0.9-0.4-1.3    c-0.1-0.5-0.1-0.9-0.1-1.4c0-0.5,0.1-0.9,0.1-1.4c0.1-0.4,0.2-0.9,0.4-1.3c0.2-0.4,0.4-0.8,0.6-1.2s0.6-0.7,0.9-1.1    c0.3-0.3,0.7-0.6,1.1-0.9c0.4-0.3,0.8-0.5,1.2-0.7c0.4-0.2,0.9-0.3,1.3-0.4c0.9-0.2,1.8-0.2,2.7,0c0.4,0.1,0.9,0.2,1.3,0.4    c0.4,0.2,0.8,0.4,1.2,0.7c0.4,0.3,0.7,0.5,1.1,0.9s0.6,0.7,0.9,1.1c0.3,0.4,0.5,0.8,0.6,1.2c0.2,0.4,0.3,0.9,0.4,1.3    c0.1,0.4,0.1,0.9,0.1,1.4C188.5,247.6,188.5,248,188.4,248.5z"/><g><path class="st1" d="M484.9,340.7c-11.6-17.5-35.2-22.3-52.7-10.7c-3.2,2.1-5.9,4.6-8.2,7.4l-73.5-119.4l-25-40.6l-19.6-8.4     l1.8,19.6l-18.1-10.2l-4.5,30.7l-21.2-5.4l28,39.4l87.9,123.8c-3.6,1-7.1,2.7-10.5,4.8c-17.5,11.6-22.3,35.2-10.7,52.7     s35.2,22.3,52.7,10.7c12.7-8.4,18.7-23.2,16.6-37.3l5.6-3.7c12.2,7.5,28.1,7.7,40.8-0.7C491.7,381.8,496.5,358.2,484.9,340.7z"/></g><path class="st0" d="M163.6,117.7c1.3,2.3,3.7,3.6,6.1,3.6c1.2,0,2.4-0.3,3.4-0.9c3.4-1.9,4.5-6.2,2.6-9.5l-23-40.7    c-1.9-3.4-6.2-4.6-9.5-2.6c-3.4,1.9-4.5,6.2-2.6,9.5L163.6,117.7z"/><path class="st0" d="M251.9,64.1C251.9,64.1,251.9,64.1,251.9,64.1c-3.9,0-7,3.1-7,7l-0.2,38.2c0,3.9,3.1,7,7,7c0,0,0,0,0,0    c3.9,0,7-3.1,7-7l0.2-38.2C258.9,67.3,255.8,64.1,251.9,64.1z"/><path class="st0" d="M324.8,114.2c1.3,1,2.8,1.4,4.2,1.4c2.1,0,4.2-1,5.6-2.8l28.8-38c2.3-3.1,1.7-7.5-1.3-9.8    c-3.1-2.3-7.5-1.7-9.8,1.3l-28.8,38C321.2,107.5,321.8,111.9,324.8,114.2z"/></g></g></svg>