<?xml version="1.0" ?><svg id="Layer_1" style="enable-background:new 0 0 512 512;" version="1.1" viewBox="0 0 512 512" xml:space="preserve" xmlns="http://www.w3.org/2000/svg" xmlns:xlink="http://www.w3.org/1999/xlink"><style type="text/css">
	.st0{fill:#1B3954;}
	.st1{fill:#16ADE1;}
</style><g><g><g><path class="st1" d="M411.5,64.6l-44.9-35.9L328,80.5c15.6,8.7,29.9,19.4,42.7,31.9L411.5,64.6z"/></g><g><path class="st1" d="M48.8,449.3l46.4,34l35.8-52.5c-15.5-8.8-29.7-19.6-42.4-32.2L48.8,449.3z"/></g><path class="st0" d="M457.9,427.1l-75.4-62.8c21.7-30.6,34.5-67.9,34.5-108.3c0-52-21.2-99.1-55.5-132.9    c-12.4-12.3-26.6-22.9-42-31.3c-26.6-14.5-57-22.7-89.4-22.7C126.9,69.1,43.2,152.8,43.2,256c0,51.3,20.6,97.7,54.1,131.5    c12.3,12.4,26.3,23.1,41.6,31.7c27,15.1,58.1,23.7,91.2,23.7c47.5,0,90.8-17.7,123.8-46.8l61.4,73.6c11.4,13.7,32.1,14.6,44.7,2    C472.5,459.2,471.6,438.5,457.9,427.1z M352.5,345.6c-6.3,8.5-13.4,16.3-21.2,23.4c-26.8,24-62.3,38.7-101.2,38.7    c-25.7,0-50-6.4-71.2-17.8l40.7-59.6c1.9,2.5,4.1,4.7,6.7,6.6c14.4,10.6,34.6,7.4,45.2-7c10.5-14.4,7.4-34.6-7-45.2    c-10.5-7.7-24-8.1-34.7-2.3l-4.6-3.3c2.4-11.9-2.2-24.7-12.6-32.4c-14.4-10.6-34.6-7.4-45.2,7c-10.5,14.4-7.4,34.6,7,45.2    c2.7,2,5.7,3.5,8.7,4.5l-43.9,56C93.9,332.4,78.5,296,78.5,256c0-83.8,67.9-151.7,151.7-151.7c24.5,0,47.6,5.8,68.1,16.1    l-42.3,56.8c-1.8-2.5-3.9-4.8-6.4-6.9c-14-11.1-34.3-8.8-45.4,5.1c-11.1,14-8.8,34.3,5.1,45.4c10.1,8.1,23.6,9.1,34.5,3.7l4.4,3.5    c-2.9,11.8,1.1,24.8,11.3,32.9c13.9,11.1,34.3,8.9,45.4-5.1c11.1-14,8.8-34.3-5.1-45.4c-2.6-2.1-5.5-3.7-8.5-4.9l47.4-55.6    c22.9,23.4,38.2,54.2,42.2,88.4h-26.6c-3.9,0-7,3.1-7,7c0,3.9,3.1,7,7,7h27.2c0.1,0,0.2,0,0.3,0c0,1.2,0,2.4,0,3.6    C381.8,289.5,370.9,320.5,352.5,345.6z"/><path class="st0" d="M340.7,242.7c-0.2-0.4-0.4-0.8-0.6-1.2c-0.3-0.4-0.6-0.7-0.9-1.1c-0.3-0.3-0.7-0.6-1.1-0.9    c-0.4-0.3-0.8-0.5-1.2-0.7c-0.4-0.2-0.9-0.3-1.3-0.4c-0.9-0.2-1.8-0.2-2.7,0c-0.5,0.1-0.9,0.2-1.3,0.4c-0.4,0.2-0.8,0.4-1.2,0.7    c-0.4,0.3-0.7,0.5-1.1,0.9c-0.3,0.3-0.6,0.7-0.9,1.1s-0.5,0.8-0.6,1.2c-0.2,0.4-0.3,0.9-0.4,1.3c-0.1,0.4-0.1,0.9-0.1,1.4    s0,0.9,0.1,1.4c0.1,0.4,0.2,0.9,0.4,1.3c0.2,0.4,0.4,0.8,0.6,1.2c0.3,0.4,0.6,0.7,0.9,1.1c0.3,0.3,0.7,0.6,1.1,0.9    c0.4,0.3,0.8,0.5,1.2,0.6c0.4,0.2,0.9,0.3,1.3,0.4s0.9,0.1,1.4,0.1s0.9,0,1.4-0.1c0.4-0.1,0.9-0.2,1.3-0.4    c0.4-0.2,0.8-0.4,1.2-0.6c0.4-0.3,0.8-0.6,1.1-0.9c1.3-1.3,2.1-3.1,2.1-5c0-0.5-0.1-0.9-0.1-1.4    C341,243.6,340.9,243.1,340.7,242.7z"/></g></g></svg>