<?xml version="1.0" ?><svg id="Layer_1" style="enable-background:new 0 0 512 512;" version="1.1" viewBox="0 0 512 512" xml:space="preserve" xmlns="http://www.w3.org/2000/svg" xmlns:xlink="http://www.w3.org/1999/xlink"><style type="text/css">
	.st0{fill:#1B3954;}
	.st1{fill:#16ADE1;}
</style><polygon class="st0" points="326.5,145.6 326.5,195.4 293.4,195.4 293.4,228.5 243.6,228.5 243.6,195.4 210.5,195.4 210.5,145.6   243.6,145.6 243.6,112.5 293.4,112.5 293.4,145.6 "/><polygon class="st1" points="326.5,145.6 326.5,195.4 293.4,195.4 293.4,228.5 243.6,228.5 243.6,195.4 210.5,195.4 210.5,145.6   243.6,145.6 243.6,112.5 293.4,112.5 293.4,145.6 "/><path class="st0" d="M393,244.1c12.8-21.6,20.1-46.7,20.1-73.6c0-79.9-64.8-144.6-144.6-144.6c-79.9,0-144.6,64.8-144.6,144.6  c0,0.3,0,0.7,0,1h0V199l-23.6,33.8c-3.4,4.8-0.5,11.5,5.2,12.4l18.3,3l10.1,88.4c1,8.8,7.3,16,15.9,18.3c15.4,4.1,43,9.5,81,9.5  c0,0,5.4,96.1-20.2,121.7H258v-59.8c0-3.9,3.1-7,7-7s7,3.1,7,7v59.8h119.2c0,0-11.7-32.8-21.5-66.6c-10.2-35.2-11.4-72.4-3.5-108.3  C371.3,287.5,380.6,265,393,244.1z M271.9,402.5c-0.1,0.4-0.2,0.9-0.4,1.3c-0.2,0.4-0.4,0.8-0.6,1.2c-0.3,0.4-0.5,0.7-0.9,1.1  c-1.3,1.3-3.1,2-5,2c-0.5,0-0.9,0-1.4-0.1c-0.4-0.1-0.9-0.2-1.3-0.4c-0.4-0.2-0.8-0.4-1.2-0.6c-0.4-0.3-0.7-0.6-1.1-0.9  c-0.3-0.3-0.6-0.7-0.9-1.1c-0.3-0.4-0.5-0.8-0.6-1.2c-0.2-0.4-0.3-0.9-0.4-1.3c-0.1-0.4-0.1-0.9-0.1-1.4c0-0.5,0-0.9,0.1-1.4  c0.1-0.4,0.2-0.9,0.4-1.3c0.2-0.4,0.4-0.8,0.6-1.2c0.3-0.4,0.5-0.7,0.9-1.1c0.3-0.3,0.7-0.6,1.1-0.9c0.4-0.3,0.8-0.5,1.2-0.7  c0.4-0.2,0.9-0.3,1.3-0.4c2.3-0.4,4.7,0.3,6.3,1.9c1.3,1.3,2,3.1,2,4.9C272,401.6,271.9,402.1,271.9,402.5z M333.5,247  c-17.5,14.9-40.2,23.9-65,23.9c-55.1,0-99.9-44.4-100.4-99.4c0-0.3,0-0.7,0-1C168,115,213,70,268.5,70S369,115,369,170.5  C369,201.1,355.2,228.6,333.5,247z"/></svg>