<?xml version="1.0" ?><svg id="Layer_1" style="enable-background:new 0 0 512 512;" version="1.1" viewBox="0 0 512 512" xml:space="preserve" xmlns="http://www.w3.org/2000/svg" xmlns:xlink="http://www.w3.org/1999/xlink"><style type="text/css">
	.st0{fill:#1B3954;}
	.st1{fill:#16ADE1;}
</style><g><g><g><polygon class="st1" points="288.6,176.6 223.4,176.6 223.4,219.9 180.1,219.9 180.1,285.2 223.4,285.2 223.4,328.5 288.6,328.5      288.6,285.2 332,285.2 332,219.9 288.6,219.9    "/></g><path class="st0" d="M441.2,114.2c-6.3,1.4-12.8,2.1-19.5,2.1c-48.4,0-87.7-38.6-87.7-86.3H177.9c0,47.6-39.3,86.3-87.7,86.3    c-6.7,0-13.2-0.7-19.5-2.1C13.9,354,256,482,256,482S498.1,354,441.2,114.2z M339.5,361.8c-30.5,35.4-63.4,59.9-83.4,73.2    c-20.5-13.6-54.4-38.9-85.1-75c-41.7-49.1-64.5-102-68.1-157.9h30.5c3.9,0,7-3.1,7-7c0-3.9-3.1-7-7-7h-31    c-0.1-10.7,0.5-21.4,1.8-32.3c50.2-5.4,91.8-39.6,107.3-85.6h89.1c15.6,45.9,57.2,80.2,107.3,85.6    C416.6,229.7,393.7,298.9,339.5,361.8z"/><path class="st0" d="M159.9,192.3c-0.2-0.4-0.4-0.8-0.6-1.2c-0.3-0.4-0.6-0.7-0.9-1.1c-0.3-0.3-0.7-0.6-1.1-0.9    c-0.4-0.3-0.8-0.5-1.2-0.6c-0.4-0.2-0.9-0.3-1.3-0.4c-0.9-0.2-1.8-0.2-2.7,0c-0.4,0.1-0.9,0.2-1.3,0.4c-0.4,0.2-0.8,0.4-1.2,0.6    c-0.4,0.3-0.7,0.6-1.1,0.9c-0.3,0.3-0.6,0.7-0.9,1.1c-0.3,0.4-0.5,0.8-0.7,1.2c-0.2,0.4-0.3,0.9-0.4,1.3c-0.1,0.5-0.1,0.9-0.1,1.4    c0,1.8,0.7,3.6,2.1,4.9c0.3,0.3,0.7,0.6,1.1,0.9s0.8,0.5,1.2,0.7c0.4,0.2,0.9,0.3,1.3,0.4c0.4,0.1,0.9,0.1,1.4,0.1    c0.5,0,0.9,0,1.4-0.1c0.4-0.1,0.9-0.2,1.3-0.4c0.4-0.2,0.8-0.4,1.2-0.7c0.4-0.3,0.7-0.5,1.1-0.9c1.3-1.3,2-3.1,2-4.9    c0-0.4,0-0.9-0.1-1.4C160.2,193.2,160,192.8,159.9,192.3z"/></g></g></svg>