<?xml version="1.0" ?><svg id="Layer_1" style="enable-background:new 0 0 512 512;" version="1.1" viewBox="0 0 512 512" xml:space="preserve" xmlns="http://www.w3.org/2000/svg" xmlns:xlink="http://www.w3.org/1999/xlink"><style type="text/css">
	.st0{fill:#1B3954;}
	.st1{fill:#16ADE1;}
</style><g><g><g><path class="st1" d="M385,472.5H277.5c-8,0-14.5-6.5-14.5-14.5v-45.5c0,0,0,0,0,0h24.5v-24h-63v24H249c0,0,0,0,0,0V458     c0,15.7,12.8,28.5,28.5,28.5H385c3.9,0,7-3.1,7-7S388.9,472.5,385,472.5z"/></g><path class="st0" d="M346.3,359.5v-21.6c0-6.6,4.2-12.4,10.5-14.3h0c16.8-5.4,28.3-21,28.3-38.6V88.1c0-30.7-24.9-55.6-55.6-55.6    H182.6c-30.7,0-55.6,24.9-55.6,55.6v196.8c0,17.7,11.4,33.3,28.3,38.6h0c6.2,2,10.5,7.8,10.5,14.3v21.6c0,8.3,6.7,15,15,15h150.4    C339.5,374.5,346.3,367.8,346.3,359.5z M341.3,151.3c0.3-0.3,0.7-0.6,1.1-0.9c0.4-0.3,0.8-0.5,1.2-0.6c0.4-0.2,0.9-0.3,1.3-0.4    c2.3-0.5,4.7,0.3,6.3,1.9c1.3,1.3,2.1,3.1,2.1,4.9c0,0.5,0,0.9-0.1,1.4c-0.1,0.4-0.2,0.9-0.4,1.3c-0.2,0.4-0.4,0.8-0.6,1.2    c-0.3,0.4-0.5,0.7-0.9,1.1c-1.3,1.3-3.1,2-4.9,2c-0.5,0-0.9,0-1.4-0.1c-0.4-0.1-0.9-0.2-1.3-0.4c-0.4-0.2-0.8-0.4-1.2-0.6    s-0.7-0.6-1.1-0.9c-0.3-0.3-0.6-0.7-0.9-1.1c-0.3-0.4-0.5-0.8-0.6-1.2c-0.2-0.4-0.3-0.9-0.4-1.3c-0.1-0.5-0.1-0.9-0.1-1.4    C339.3,154.4,340,152.6,341.3,151.3z M339.4,198.1c0.1-0.4,0.2-0.9,0.4-1.3c0.2-0.4,0.4-0.8,0.6-1.2c0.3-0.4,0.6-0.7,0.9-1.1    c0.3-0.3,0.7-0.6,1.1-0.9s0.8-0.5,1.2-0.6c0.4-0.2,0.9-0.3,1.3-0.4c2.3-0.4,4.7,0.3,6.3,1.9c0.3,0.3,0.6,0.7,0.9,1.1    c0.3,0.4,0.5,0.8,0.6,1.2c0.2,0.4,0.3,0.9,0.4,1.3c0.1,0.5,0.1,0.9,0.1,1.4c0,0.5,0,0.9-0.1,1.4c-0.1,0.5-0.2,0.9-0.4,1.3    c-0.2,0.4-0.4,0.8-0.6,1.2c-0.3,0.4-0.5,0.8-0.9,1.1c-1.3,1.3-3.1,2-4.9,2c-0.5,0-0.9,0-1.4-0.1c-0.4-0.1-0.9-0.2-1.3-0.4    c-0.4-0.2-0.8-0.4-1.2-0.6c-0.4-0.3-0.7-0.6-1.1-0.9c-0.3-0.3-0.6-0.7-0.9-1.1c-0.3-0.4-0.5-0.8-0.6-1.2c-0.2-0.4-0.3-0.9-0.4-1.3    c-0.1-0.4-0.1-0.9-0.1-1.4C339.3,199,339.3,198.6,339.4,198.1z M339.4,241.4c0.1-0.4,0.2-0.9,0.4-1.3c0.2-0.4,0.4-0.8,0.6-1.2    c0.3-0.4,0.6-0.7,0.9-1.1c0.3-0.3,0.7-0.6,1.1-0.9c0.4-0.3,0.8-0.5,1.2-0.6c0.4-0.2,0.9-0.3,1.3-0.4c2.3-0.5,4.7,0.3,6.3,1.9    c0.3,0.3,0.6,0.7,0.9,1.1c0.3,0.4,0.5,0.8,0.6,1.2c0.2,0.4,0.3,0.9,0.4,1.3c0.1,0.5,0.1,0.9,0.1,1.4c0,1.8-0.8,3.6-2.1,4.9    c-1.3,1.3-3.1,2.1-4.9,2.1c-0.5,0-0.9,0-1.4-0.1c-0.4-0.1-0.9-0.2-1.3-0.4c-0.4-0.2-0.8-0.4-1.2-0.6c-0.4-0.3-0.7-0.5-1.1-0.9    c-1.3-1.3-2-3.1-2-4.9C339.3,242.3,339.3,241.8,339.4,241.4z M165.8,240.3c-0.8-15.9,4.7-31.6,12.8-45.3    c8.5-14.3,20.9-25.3,30.3-38.8c9.4,13.5,21.8,24.5,30.3,38.8c8.1,13.7,13.6,29.4,12.8,45.3c-0.8,15.9-8.6,31.9-22.2,40.1    c-6.3,3.8-13.6,5.7-20.9,5.7c-7.3,0-14.6-1.9-20.9-5.7C174.4,272.2,166.6,256.2,165.8,240.3z M306.2,339.7H205.8c-3.9,0-7-3.1-7-7    s3.1-7,7-7h100.3c3.9,0,7,3.1,7,7S310,339.7,306.2,339.7z M321.6,293h-39c-3.9,0-7-3.1-7-7s3.1-7,7-7h39c3.9,0,7,3.1,7,7    S325.5,293,321.6,293z M321.6,249.8h-39c-3.9,0-7-3.1-7-7s3.1-7,7-7h39c3.9,0,7,3.1,7,7S325.5,249.8,321.6,249.8z M321.6,206.5    h-39c-3.9,0-7-3.1-7-7s3.1-7,7-7h39c3.9,0,7,3.1,7,7S325.5,206.5,321.6,206.5z M321.6,163.2h-39c-3.9,0-7-3.1-7-7s3.1-7,7-7h39    c3.9,0,7,3.1,7,7S325.5,163.2,321.6,163.2z M320.8,108.2H191.2c-7.2,0-13-5.8-13-13V82.8c0-7.2,5.8-13,13-13h129.7    c7.2,0,13,5.8,13,13v12.3C333.8,102.3,328,108.2,320.8,108.2z"/></g></g></svg>