<?xml version="1.0" ?><svg id="Layer_1" style="enable-background:new 0 0 512 512;" version="1.1" viewBox="0 0 512 512" xml:space="preserve" xmlns="http://www.w3.org/2000/svg" xmlns:xlink="http://www.w3.org/1999/xlink"><style type="text/css">
	.st0{fill:#1B3954;}
	.st1{fill:#16ADE1;}
</style><g><g><path class="st0" d="M131.4,428.4V93.8H87.3v304.1c0,32,26,58,58,58h0.2v-14c0.2,0,0.4,0,0.6,0c0,0,0,0,0,0c0.2,0,0.3,0,0.5,0    l0.5,0h0.4c0.1,0,0.3,0,0.4,0l0.3,0l0.3,0c0.2,0,0.4,0,0.6,0l0.3,0c0.2,0,0.4,0,0.6-0.1l0.2,0l0.2,0c0.4,0,0.9-0.1,1.3-0.2    c0.4-0.1,0.9-0.1,1.4-0.2c9.2-1.7,17.5-6.2,23.8-12.8H131.4z"/><rect class="st0" height="61.7" width="24.8" x="368.9" y="93.8"/><g><g><path class="st1" d="M187.4,410.4c1.2-4,1.8-8.3,1.8-12.5V155.5h165.7v-24h-67.7c-3.9,0-7-3.1-7-7c0-3.9,3.1-7,7-7h67.7V56.1      H145.4v358.3H186C186.6,413.1,187,411.8,187.4,410.4z M247,119.5c0.3-0.3,0.7-0.6,1.1-0.9c0.4-0.3,0.8-0.5,1.2-0.6      c0.4-0.2,0.9-0.3,1.3-0.4c0.9-0.2,1.8-0.2,2.7,0c0.4,0.1,0.9,0.2,1.3,0.4c0.4,0.2,0.8,0.4,1.2,0.6c0.4,0.3,0.7,0.5,1.1,0.9      c1.3,1.3,2,3.1,2,5c0,0.5,0,0.9-0.1,1.4s-0.2,0.9-0.4,1.3c-0.2,0.4-0.4,0.8-0.6,1.2c-0.3,0.4-0.6,0.7-0.9,1.1      c-0.3,0.3-0.7,0.6-1.1,0.9c-0.4,0.3-0.8,0.5-1.2,0.6c-0.4,0.2-0.9,0.3-1.3,0.4c-0.4,0.1-0.9,0.1-1.4,0.1c-0.5,0-0.9,0-1.4-0.1      c-0.4-0.1-0.9-0.2-1.3-0.4c-0.4-0.2-0.8-0.4-1.2-0.6c-0.4-0.3-0.7-0.6-1.1-0.9c-0.3-0.3-0.6-0.7-0.9-1.1      c-0.3-0.4-0.5-0.8-0.7-1.2c-0.2-0.4-0.3-0.9-0.4-1.3s-0.1-0.9-0.1-1.4C244.9,122.6,245.7,120.8,247,119.5z"/></g></g><path class="st0" d="M203.3,169.5v228.4c0,5.7-0.8,11.3-2.4,16.5c-4.5,15.1-14.9,27.6-28.6,34.8v6.7h194.5c32,0,58-26,58-58V169.5    H203.3z M375.3,339.7H341V374h-54v-34.3h-34.3v-54H287v-34.3h54v34.3h34.3V339.7z"/></g></g></svg>