<?xml version="1.0" ?><svg id="Layer_1" style="enable-background:new 0 0 512 512;" version="1.1" viewBox="0 0 512 512" xml:space="preserve" xmlns="http://www.w3.org/2000/svg" xmlns:xlink="http://www.w3.org/1999/xlink"><style type="text/css">
	.st0{fill:#1B3954;}
	.st1{fill:#16ADE1;}
</style><g><g><g><g><path class="st1" d="M289.7,258.1h-45.8v43.4c0,3.9-3.1,7-7,7c-3.9,0-7-3.1-7-7v-43.4H74.1v97.6c0,32.7,14.5,61.9,37.5,81.7      c18.9,16.3,43.5,26.1,70.3,26.1c28.9,0,55.1-11.4,74.5-29.9c20.5-19.6,33.3-47.3,33.3-78V258.1z M241.9,351c-1.3,1.3-3.1,2-5,2      c-0.5,0-0.9,0-1.4-0.1c-0.4-0.1-0.9-0.2-1.3-0.4c-0.4-0.2-0.8-0.4-1.2-0.7c-0.4-0.3-0.7-0.5-1.1-0.9c-1.3-1.3-2-3.1-2-5      c0-1.8,0.8-3.6,2-4.9c0.3-0.3,0.7-0.6,1.1-0.9c0.4-0.3,0.8-0.5,1.2-0.6c0.4-0.2,0.9-0.3,1.3-0.4c2.3-0.5,4.7,0.3,6.3,1.9      c1.3,1.3,2,3.1,2,4.9C243.9,347.9,243.2,349.7,241.9,351z"/></g></g><path class="st0" d="M330.6,248.9c-9.3,0-18.3,1.2-26.9,3.4v103.4c0,33.1-13,63.9-36.6,87c17.8,13.1,39.7,20.8,63.5,20.8    c27.1,0,51.9-10.1,70.8-26.7c-0.2-0.1-0.4-0.3-0.5-0.5l-70.5-70.5c-2.7-2.7-2.7-7.2,0-9.9c2.7-2.7,7.2-2.7,9.9,0l70.5,70.5    c0.2,0.2,0.3,0.3,0.5,0.5c16.6-18.9,26.7-43.7,26.7-70.8C437.9,296.9,389.9,248.9,330.6,248.9z M322.4,348c-1.3,1.3-3.1,2.1-5,2.1    c-0.5,0-0.9-0.1-1.4-0.1c-0.5-0.1-0.9-0.2-1.3-0.4c-0.4-0.2-0.8-0.4-1.2-0.6c-0.4-0.3-0.7-0.5-1.1-0.9c-1.3-1.3-2-3.1-2-4.9    c0-0.5,0-0.9,0.1-1.4c0.1-0.5,0.2-0.9,0.4-1.3c0.2-0.4,0.4-0.8,0.6-1.2c0.3-0.4,0.5-0.7,0.9-1.1c1.6-1.6,4.1-2.4,6.3-1.9    c0.5,0.1,0.9,0.2,1.3,0.4c0.4,0.2,0.8,0.4,1.2,0.7s0.7,0.5,1.1,0.9c0.3,0.3,0.6,0.7,0.9,1.1c0.3,0.4,0.5,0.8,0.7,1.2    c0.2,0.4,0.3,0.9,0.4,1.3c0.1,0.4,0.1,0.9,0.1,1.4C324.4,344.8,323.7,346.7,322.4,348z"/><path class="st0" d="M289.7,156.3c0-29.8-12.1-56.7-31.6-76.2s-46.5-31.6-76.2-31.6c-20.1,0-38.9,5.5-55,15.1    c-31.6,18.8-52.8,53.3-52.8,92.8v87.9h215.6V156.3z M149.4,101.4c-19.3,11.5-31.3,32.5-31.3,54.9c0,3.9-3.1,7-7,7    c-3.9,0-7-3.1-7-7c0-27.3,14.6-53,38.1-67c3.3-2,7.6-0.9,9.6,2.5C153.8,95.1,152.7,99.4,149.4,101.4z"/></g></g></svg>